<svg xmlns="http://www.w3.org/2000/svg" version="1.1" xmlns:xlink="http://www.w3.org/1999/xlink" xmlns:svgjs="http://svgjs.dev/svgjs" width="1500" height="1500" viewBox="0 0 1500 1500"><rect width="1500" height="1500" fill="#dbefed"></rect><g transform="matrix(0.6666666666666666,0,0,0.6666666666666666,249.39393939393938,568.2722117463484)"><svg viewBox="0 0 396 144" data-background-color="#dbefed" preserveAspectRatio="xMidYMid meet" height="545" width="1500" xmlns="http://www.w3.org/2000/svg" xmlns:xlink="http://www.w3.org/1999/xlink"><g id="tight-bounds" transform="matrix(1,0,0,1,0.2400000000000091,0.024644288181093543)"><svg viewBox="0 0 395.52 143.95113137642667" height="143.95113137642667" width="395.52"><g><svg viewBox="0 0 671.5993864222718 244.43135999999998" height="143.95113137642667" width="395.52"><g transform="matrix(1,0,0,1,276.0793864222718,72.50470028423047)"><svg viewBox="0 0 395.52 99.42195943153905" height="99.42195943153905" width="395.52"><g id="textblocktransform"><svg viewBox="0 0 395.52 99.42195943153905" height="99.42195943153905" width="395.52" id="textblock"><g><svg viewBox="0 0 395.52 53.623454179623195" height="53.623454179623195" width="395.52"><g transform="matrix(1,0,0,1,0,0)"><svg width="395.52" viewBox="1.3 -36.45999999577501 273.33 37.05999999577501" height="53.623454179623195" data-palette-color="#4169e1"><path d="M8.95 0.15L8.95 0.15Q8.45 0.15 8.25-0.2 8.05-0.55 8.05-0.95L8.05-0.95Q8.1-1.8 8.45-1.9 8.8-2 9.3-2L9.3-2Q10.9-2 11.55-2.58 12.2-3.15 12.38-4.03 12.55-4.9 12.55-5.85L12.55-5.85 12.55-29.7 9.1-29.7Q7.4-29.65 6.45-28.98 5.5-28.3 5.05-26.88 4.6-25.45 4.25-23.2L4.25-23.2Q4.2-22.75 3.63-22.53 3.05-22.3 2.5-22.3L2.5-22.3Q2.15-22.3 1.73-22.55 1.3-22.8 1.3-23.3L1.3-23.3 1.45-30.35Q1.45-31.05 1.85-31.3 2.25-31.55 2.8-31.55L2.8-31.55 27.25-31.55Q27.8-31.55 28.18-31.3 28.55-31.05 28.55-30.35L28.55-30.35 28.75-23.3Q28.75-22.8 28.33-22.55 27.9-22.3 27.5-22.3L27.5-22.3Q27-22.3 26.45-22.53 25.9-22.75 25.8-23.2L25.8-23.2Q25.45-25.45 24.98-26.88 24.5-28.3 23.58-28.98 22.65-29.65 20.9-29.7L20.9-29.7 17.5-29.7 17.5-5.85Q17.55-4.9 17.7-4.03 17.85-3.15 18.53-2.58 19.2-2 20.75-2L20.75-2Q21.25-2 21.6-1.9 21.95-1.8 22-0.95L22-0.95Q22-0.55 21.8-0.2 21.6 0.15 21.1 0.15L21.1 0.15Q19.5 0.05 18.07 0.03 16.65 0 15.2 0L15.2 0Q12.2 0 8.95 0.15ZM35.15 0.6L35.15 0.6Q32.1 0.6 30.27-1.15 28.45-2.9 28.45-5.35L28.45-5.35Q28.45-7.9 29.77-9.35 31.1-10.8 33.27-11.5 35.45-12.2 38.02-12.45 40.6-12.7 43.05-12.85L43.05-12.85 43.05-16.8Q43.05-19.15 41.87-20.48 40.7-21.8 37.9-21.8L37.9-21.8Q36.5-21.8 35.27-20.9 34.05-20 34.05-18.3L34.05-18.3Q34.05-17.5 34.45-16.95 34.85-16.4 35.25-16.1 35.65-15.8 35.65-15.7L35.65-15.7Q35.65-15.5 35.07-14.98 34.5-14.45 33.5-14.45L33.5-14.45Q31.95-14.45 31.1-15.6 30.25-16.75 30.25-18.15L30.25-18.15Q30.25-20.05 31.42-21.15 32.6-22.25 34.45-22.75 36.3-23.25 38.2-23.25L38.2-23.25Q40.45-23.25 42.57-22.7 44.7-22.15 46.07-20.6 47.45-19.05 47.45-15.95L47.45-15.95 47.45-4.3Q47.5-3.8 47.7-3.1 47.9-2.4 48.47-1.88 49.05-1.35 50.05-1.35L50.05-1.35Q50.4-1.35 50.6-1.23 50.8-1.1 50.8-0.55L50.8-0.55Q50.8-0.1 50.3 0.15 49.8 0.4 49.15 0.5 48.5 0.6 48.05 0.6L48.05 0.6Q46.2 0.6 44.75-0.48 43.3-1.55 43.05-3.45L43.05-3.45Q41.95-1.45 39.77-0.43 37.6 0.6 35.15 0.6ZM36.75-2.1L36.75-2.1Q38.45-2.1 39.87-2.95 41.3-3.8 42.17-5.28 43.05-6.75 43.05-8.55L43.05-8.55 43.05-11.4Q37.9-11.05 35.7-9.75 33.5-8.45 33.5-5.5L33.5-5.5Q33.5-2.1 36.75-2.1ZM54.25 0.15L54.25 0.15Q53.9 0.15 53.67-0.18 53.45-0.5 53.45-0.85L53.45-0.85Q53.55-1.6 53.84-1.68 54.15-1.75 54.65-1.75L54.65-1.75Q56.05-1.75 56.55-2.23 57.05-2.7 57.12-3.5 57.2-4.3 57.2-5.15L57.2-5.15 57.2-16.6Q57.2-17.5 57.12-18.28 57.05-19.05 56.55-19.53 56.05-20 54.65-20L54.65-20Q54.2-20 53.82-20.13 53.45-20.25 53.45-21L53.45-21Q53.45-21.75 54.25-21.9L54.25-21.9Q56.55-22.25 57.77-22.6 59-22.95 59.65-23.2 60.3-23.45 60.8-23.5L60.8-23.5Q61.2-23.55 61.47-23.35 61.75-23.15 61.75-22.55L61.75-22.55 61.75-5.15Q61.75-4.3 61.82-3.5 61.9-2.7 62.42-2.23 62.95-1.75 64.34-1.75L64.34-1.75Q64.8-1.75 65.12-1.68 65.45-1.6 65.5-0.85L65.5-0.85Q65.5-0.5 65.3-0.18 65.09 0.15 64.7 0.15L64.7 0.15Q63.25 0.05 62.02 0.03 60.8 0 59.45 0L59.45 0Q58.09 0 56.9 0.03 55.7 0.05 54.25 0.15ZM59.2-29.05L59.2-29.05Q57.8-29.05 56.84-29.93 55.9-30.8 55.9-32.1L55.9-32.1Q55.9-33.25 57.05-34.15 58.2-35.05 59.65-35.05L59.65-35.05Q60.9-35.05 61.7-34.18 62.5-33.3 62.5-31.95L62.5-31.95Q62.5-30.75 61.55-29.9 60.59-29.05 59.2-29.05ZM68.54 0.15L68.54 0.15Q68.19 0.15 67.97-0.18 67.74-0.5 67.74-0.85L67.74-0.85Q67.79-1.6 68.12-1.68 68.44-1.75 68.89-1.75L68.89-1.75Q70.29-1.75 70.82-2.23 71.34-2.7 71.42-3.5 71.49-4.3 71.49-5.15L71.49-5.15 71.49-29.55Q71.49-30.45 71.42-31.23 71.34-32 70.84-32.48 70.34-32.95 68.94-32.95L68.94-32.95Q68.49-32.95 68.12-33.08 67.74-33.2 67.74-33.95L67.74-33.95Q67.74-34.7 68.54-34.85L68.54-34.85Q70.84-35.2 72.07-35.55 73.29-35.9 73.94-36.15 74.59-36.4 75.09-36.45L75.09-36.45Q75.49-36.5 75.77-36.3 76.04-36.1 76.04-35.5L76.04-35.5 76.04-5.15Q76.04-4.3 76.12-3.5 76.19-2.7 76.72-2.23 77.24-1.75 78.64-1.75L78.64-1.75Q79.09-1.75 79.42-1.68 79.74-1.6 79.79-0.85L79.79-0.85Q79.79-0.5 79.59-0.18 79.39 0.15 78.99 0.15L78.99 0.15Q77.54 0.05 76.32 0.03 75.09 0 73.74 0L73.74 0Q72.39 0 71.19 0.03 69.99 0.05 68.54 0.15ZM94.24 0.6L94.24 0.6Q90.74 0.6 88.12-1.05 85.49-2.7 84.04-5.35 82.59-8 82.59-11L82.59-11Q82.59-13.95 83.64-16.25 84.69-18.55 86.42-20.1 88.14-21.65 90.19-22.45 92.24-23.25 94.24-23.25L94.24-23.25Q97.74-23.25 100.37-21.6 102.99-19.95 104.44-17.3 105.89-14.65 105.89-11.65L105.89-11.65Q105.89-8.7 104.82-6.4 103.74-4.1 102.02-2.55 100.29-1 98.24-0.2 96.19 0.6 94.24 0.6ZM94.24-1.25L94.24-1.25Q96.69-1.25 98.12-2.7 99.54-4.15 100.17-6.53 100.79-8.9 100.79-11.65L100.79-11.65Q100.79-14.3 100.14-16.5 99.49-18.7 98.04-20.05 96.59-21.4 94.24-21.4L94.24-21.4Q91.79-21.4 90.34-19.98 88.89-18.55 88.29-16.23 87.69-13.9 87.69-11.1L87.69-11.1Q87.69-8.5 88.32-6.25 88.94-4 90.39-2.63 91.84-1.25 94.24-1.25ZM110.09 0.15L110.09 0.15Q109.74 0.15 109.51-0.18 109.29-0.5 109.29-0.85L109.29-0.85Q109.39-1.6 109.69-1.68 109.99-1.75 110.49-1.75L110.49-1.75Q111.89-1.75 112.39-2.23 112.89-2.7 112.96-3.5 113.04-4.3 113.04-5.15L113.04-5.15 113.04-16.6Q113.04-17.5 112.96-18.28 112.89-19.05 112.39-19.53 111.89-20 110.49-20L110.49-20Q110.04-20 109.66-20.13 109.29-20.25 109.29-21L109.29-21Q109.29-21.75 110.09-21.9L110.09-21.9Q112.39-22.25 113.61-22.6 114.84-22.95 115.46-23.2 116.09-23.45 116.59-23.5L116.59-23.5Q116.99-23.55 117.26-23.35 117.54-23.15 117.54-22.55L117.54-22.55 117.54-19.45 117.69-19.45Q119.39-21.1 121.19-22.18 122.99-23.25 124.49-23.25L124.49-23.25Q126.24-23.25 127.16-21.95 128.09-20.65 128.09-19.2L128.09-19.2Q128.09-17.95 127.29-16.78 126.49-15.6 124.89-15.6L124.89-15.6Q124.09-15.6 123.61-15.93 123.14-16.25 123.09-16.4L123.09-16.4Q123.09-16.5 123.56-17 124.04-17.5 124.04-18.25L124.04-18.25Q124.04-19.15 123.56-19.7 123.09-20.25 122.29-20.25L122.29-20.25Q121.44-20.25 120.11-19.4 118.79-18.55 117.59-17.35L117.59-17.35 117.59-5.15Q117.59-4.3 117.66-3.5 117.74-2.7 118.26-2.23 118.79-1.75 120.19-1.75L120.19-1.75Q120.64-1.75 120.96-1.68 121.29-1.6 121.34-0.85L121.34-0.85Q121.34-0.5 121.14-0.18 120.94 0.15 120.54 0.15L120.54 0.15Q119.09 0.05 117.86 0.03 116.64 0 115.29 0L115.29 0Q113.94 0 112.74 0.03 111.54 0.05 110.09 0.15ZM148.59 0.25L148.59 0.25Q148.29 0.25 147.99 0.13 147.69 0 147.54-0.25L147.54-0.25 136.29-25.7 136.14-25.7 136.24-5.85Q136.29-4.9 136.41-4.03 136.54-3.15 137.19-2.58 137.84-2 139.39-2L139.39-2Q139.94-2 140.29-1.9 140.64-1.8 140.69-0.95L140.69-0.95Q140.69-0.55 140.46-0.2 140.24 0.15 139.79 0.15L139.79 0.15Q138.74 0.1 138.09 0.08 137.44 0.05 136.84 0.03 136.24 0 135.24 0L135.24 0Q133.74 0 132.81 0.03 131.89 0.05 130.29 0.15L130.29 0.15Q129.79 0.15 129.59-0.2 129.39-0.55 129.39-0.95L129.39-0.95Q129.44-1.8 129.79-1.9 130.14-2 130.64-2L130.64-2Q132.24-2 132.86-2.58 133.49-3.15 133.64-4.03 133.79-4.9 133.79-5.85L133.79-5.85 133.89-25.7Q133.89-27.3 133.54-28.08 133.19-28.85 132.44-29.18 131.69-29.5 130.54-29.7L130.54-29.7Q129.84-29.85 129.56-29.95 129.29-30.05 129.29-30.85L129.29-30.85Q129.29-31.7 129.89-31.78 130.49-31.85 131.29-31.85L131.29-31.85Q133.74-31.85 135.61-31.45 137.49-31.05 138.89-29.93 140.29-28.8 141.19-26.55L141.19-26.55 149.79-7.25 149.94-7.25 159.79-31.55 162.64-31.55Q164.14-31.55 165.56-31.6 166.99-31.65 168.59-31.7L168.59-31.7Q169.09-31.7 169.29-31.35 169.49-31 169.49-30.6L169.49-30.6Q169.44-29.75 169.09-29.65 168.74-29.55 168.24-29.55L168.24-29.55Q166.69-29.55 166.01-28.98 165.34-28.4 165.19-27.53 165.04-26.65 164.99-25.7L164.99-25.7 164.99-5.85Q165.04-4.9 165.19-4.03 165.34-3.15 166.01-2.58 166.69-2 168.24-2L168.24-2Q168.74-2 169.09-1.9 169.44-1.8 169.49-0.95L169.49-0.95Q169.49-0.55 169.29-0.2 169.09 0.15 168.59 0.15L168.59 0.15Q166.99 0.05 165.54 0.03 164.09 0 162.59 0L162.59 0Q159.69 0 156.44 0.15L156.44 0.15Q155.94 0.15 155.74-0.2 155.54-0.55 155.54-0.95L155.54-0.95Q155.59-1.8 155.94-1.9 156.29-2 156.79-2L156.79-2Q158.39-2 159.04-2.58 159.69-3.15 159.86-4.03 160.04-4.9 160.04-5.85L160.04-5.85 160.04-25.7 159.89-25.7 149.59-0.25Q149.49 0 149.19 0.13 148.89 0.25 148.59 0.25ZM178.48 0.6L178.48 0.6Q175.43 0.6 173.61-1.15 171.78-2.9 171.78-5.35L171.78-5.35Q171.78-7.9 173.11-9.35 174.43-10.8 176.61-11.5 178.78-12.2 181.36-12.45 183.93-12.7 186.38-12.85L186.38-12.85 186.38-16.8Q186.38-19.15 185.21-20.48 184.03-21.8 181.23-21.8L181.23-21.8Q179.83-21.8 178.61-20.9 177.38-20 177.38-18.3L177.38-18.3Q177.38-17.5 177.78-16.95 178.18-16.4 178.58-16.1 178.98-15.8 178.98-15.7L178.98-15.7Q178.98-15.5 178.41-14.98 177.83-14.45 176.83-14.45L176.83-14.45Q175.28-14.45 174.43-15.6 173.58-16.75 173.58-18.15L173.58-18.15Q173.58-20.05 174.76-21.15 175.93-22.25 177.78-22.75 179.63-23.25 181.53-23.25L181.53-23.25Q183.78-23.25 185.91-22.7 188.03-22.15 189.41-20.6 190.78-19.05 190.78-15.95L190.78-15.95 190.78-4.3Q190.83-3.8 191.03-3.1 191.23-2.4 191.81-1.88 192.38-1.35 193.38-1.35L193.38-1.35Q193.73-1.35 193.93-1.23 194.13-1.1 194.13-0.55L194.13-0.55Q194.13-0.1 193.63 0.15 193.13 0.4 192.48 0.5 191.83 0.6 191.38 0.6L191.38 0.6Q189.53 0.6 188.08-0.48 186.63-1.55 186.38-3.45L186.38-3.45Q185.28-1.45 183.11-0.43 180.93 0.6 178.48 0.6ZM180.08-2.1L180.08-2.1Q181.78-2.1 183.21-2.95 184.63-3.8 185.51-5.28 186.38-6.75 186.38-8.55L186.38-8.55 186.38-11.4Q181.23-11.05 179.03-9.75 176.83-8.45 176.83-5.5L176.83-5.5Q176.83-2.1 180.08-2.1ZM208.88 0.5L206.78 0.5Q205.53-2.25 204.28-5.5 203.03-8.75 201.83-11.85 200.63-14.95 199.53-17.25L199.53-17.25Q198.73-19.1 197.98-19.88 197.23-20.65 195.73-20.85L195.73-20.85Q195.08-20.95 194.86-21.05 194.63-21.15 194.58-21.8L194.58-21.8Q194.53-22.65 195.06-22.73 195.58-22.8 196.33-22.85L196.33-22.85Q199.43-23 201.18-21.95 202.93-20.9 204.03-18.4L204.03-18.4Q204.73-16.85 205.61-14.55 206.48-12.25 207.43-9.9 208.38-7.55 209.28-5.65L209.28-5.65 209.43-5.65 214.38-18.75Q214.88-20.2 214.43-20.55 213.98-20.9 212.48-20.9L212.48-20.9Q212.03-20.9 211.73-20.98 211.43-21.05 211.38-21.8L211.38-21.8Q211.38-22.1 211.56-22.45 211.73-22.8 212.08-22.8L212.08-22.8Q213.53-22.75 214.58-22.7 215.63-22.65 216.93-22.65L216.93-22.65Q217.83-22.65 218.38-22.68 218.93-22.7 219.53-22.73 220.13-22.75 221.08-22.8L221.08-22.8Q221.48-22.8 221.66-22.45 221.83-22.1 221.83-21.8L221.83-21.8Q221.78-21.05 221.46-20.98 221.13-20.9 220.73-20.9L220.73-20.9Q219.08-20.9 218.11-20.3 217.13-19.7 216.43-17.95L216.43-17.95Q216.43-17.95 215.91-16.63 215.38-15.3 214.53-13.2 213.68-11.1 212.73-8.75 211.78-6.4 210.91-4.3 210.03-2.2 209.48-0.85 208.93 0.5 208.88 0.5L208.88 0.5ZM234.03 0.6L234.03 0.6Q230.18 0.6 227.55-1.05 224.93-2.7 223.63-5.45 222.33-8.2 222.33-11.45L222.33-11.45Q222.33-13.65 223.1-15.73 223.88-17.8 225.33-19.53 226.78-21.25 228.83-22.25 230.88-23.25 233.48-23.25L233.48-23.25Q238.08-23.25 240.4-20.88 242.73-18.5 243.08-14.85L243.08-14.85Q243.08-13.1 242.1-12.55 241.13-12 239.58-12L239.58-12 227.43-12Q227.43-9.1 228.23-6.83 229.03-4.55 230.75-3.23 232.48-1.9 235.33-1.9L235.33-1.9Q237.43-1.9 238.93-2.8 240.43-3.7 241.83-5.95L241.83-5.95Q242.23-6.45 242.93-6L242.93-6Q243.33-5.8 243.43-5.38 243.53-4.95 243.33-4.65L243.33-4.65Q241.78-2.2 239.43-0.8 237.08 0.6 234.03 0.6ZM227.43-13.9L227.43-13.9 235.58-13.9Q236.78-13.9 237.5-14.38 238.23-14.85 238.28-16L238.28-16Q238.28-18.15 237.1-19.83 235.93-21.5 233.48-21.5L233.48-21.5Q230.98-21.5 229.3-19.5 227.63-17.5 227.43-13.9ZM247.83 0.15L247.83 0.15Q247.48 0.15 247.25-0.18 247.03-0.5 247.03-0.85L247.03-0.85Q247.13-1.6 247.43-1.68 247.73-1.75 248.23-1.75L248.23-1.75Q249.63-1.75 250.13-2.23 250.63-2.7 250.7-3.5 250.78-4.3 250.78-5.15L250.78-5.15 250.78-16.6Q250.78-17.5 250.7-18.28 250.63-19.05 250.13-19.53 249.63-20 248.23-20L248.23-20Q247.78-20 247.4-20.13 247.03-20.25 247.03-21L247.03-21Q247.03-21.75 247.83-21.9L247.83-21.9Q250.13-22.25 251.35-22.6 252.58-22.95 253.2-23.2 253.83-23.45 254.33-23.5L254.33-23.5Q254.73-23.55 255-23.35 255.28-23.15 255.28-22.55L255.28-22.55 255.28-19.4 255.43-19.4Q256.43-20.35 257.48-21.23 258.53-22.1 259.95-22.68 261.38-23.25 263.48-23.25L263.48-23.25Q266.88-23.25 268.88-21.2 270.88-19.15 270.88-15.8L270.88-15.8 270.88-5.15Q270.88-4.3 270.95-3.5 271.03-2.7 271.55-2.23 272.08-1.75 273.48-1.75L273.48-1.75Q273.93-1.75 274.25-1.68 274.58-1.6 274.63-0.85L274.63-0.85Q274.63-0.5 274.43-0.18 274.23 0.15 273.83 0.15L273.83 0.15Q272.38 0.05 271.15 0.03 269.93 0 268.58 0L268.58 0Q267.23 0 266.03 0.03 264.83 0.05 263.38 0.15L263.38 0.15Q263.03 0.15 262.8-0.18 262.58-0.5 262.58-0.85L262.58-0.85Q262.63-1.6 262.95-1.68 263.28-1.75 263.73-1.75L263.73-1.75Q265.13-1.75 265.65-2.23 266.18-2.7 266.25-3.5 266.33-4.3 266.33-5.15L266.33-5.15 266.33-15.75Q266.33-17.4 265.6-18.45 264.88-19.5 263.78-20 262.68-20.5 261.53-20.5L261.53-20.5Q259.83-20.5 258.53-19.88 257.23-19.25 256.43-18.45 255.63-17.65 255.33-17.05L255.33-17.05 255.33-5.15Q255.33-4.3 255.4-3.5 255.48-2.7 256-2.23 256.53-1.75 257.93-1.75L257.93-1.75Q258.38-1.75 258.7-1.68 259.03-1.6 259.08-0.85L259.08-0.85Q259.08-0.5 258.88-0.18 258.68 0.15 258.28 0.15L258.28 0.15Q256.83 0.05 255.6 0.03 254.38 0 253.03 0L253.03 0Q251.68 0 250.48 0.03 249.28 0.05 247.83 0.15Z" opacity="1" transform="matrix(1,0,0,1,0,0)" fill="#4169e1" class="wordmark-text-0" data-fill-palette-color="primary" id="text-0"></path></svg></g></svg></g><g transform="matrix(1,0,0,1,0,66.28266474853191)"><svg viewBox="0 0 210.8106555215517 33.13929468300714" height="33.13929468300714" width="210.8106555215517"><g transform="matrix(1,0,0,1,0,0)"><svg width="210.8106555215517" viewBox="0.05 -46.5 480.52 75.55" height="33.13929468300714" data-palette-color="#e71348"><path d="M18.95-17.45L18.95-17.45Q19-17.55 19-17.75L19-17.75Q19-17.9 18.85-17.9L18.85-17.9 18.4-17.7Q13.7-11.85 13.3-11.35L13.3-11.35Q10.1-7.5 7.15-4.33 4.2-1.15 2.85 0.1L2.85 0.1 1.5 1.4Q0.9 1.8 0.55 1.8L0.55 1.8Q0.05 1.8 0.05 0.85L0.05 0.85Q0.4-3.4 2.6-11.85L2.6-11.85Q4.2-17.8 6.35-23.63 8.5-29.45 9.9-32.3L9.9-32.3 11.25-35.2Q12-36.65 13.08-37.48 14.15-38.3 14.8-38.4L14.8-38.4 15.5-38.5Q16.05-38.5 16.05-38.05L16.05-38.05Q16.05-37.8 15.85-37.3L15.85-37.3Q13.6-32.4 9.9-20.98 6.2-9.55 6.2-6.7L6.2-6.7Q6.2-6 6.55-6L6.55-6Q6.8-6 7.25-6.45L7.25-6.45Q13.15-13 18.85-20.65L18.85-20.65Q19.6-21.65 20.35-23 21.1-24.35 21.5-25.2L21.5-25.2 21.9-26.05Q22.85-28.55 23.85-30.85 24.85-33.15 25.35-34.2L25.35-34.2 25.85-35.2Q26.6-36.65 27.65-37.48 28.7-38.3 29.4-38.4L29.4-38.4 30.1-38.5Q30.6-38.5 30.6-38.05L30.6-38.05 30.5-37.6Q29.65-35.6 28.35-32.25 27.05-28.9 24.43-20.7 21.8-12.5 20.8-6.8L20.8-6.8Q20.85-6.05 21.25-6.05L21.25-6.05Q21.55-6.05 21.95-6.5L21.95-6.5Q25.2-9.75 31.3-17.55L31.3-17.55Q35.15-22.55 38.45-28.2 41.75-33.85 41.75-35.85L41.75-35.85Q41.75-37 43.3-37.75L43.3-37.75Q44.8-38.5 46.6-38.5L46.6-38.5Q47.85-38.5 47.85-37.6L47.85-37.6Q47.85-36.45 46.63-34.33 45.4-32.2 42.85-28.95 40.3-25.7 38.18-23.15 36.05-20.6 32.45-16.38 28.85-12.15 27.35-10.35L27.35-10.35Q24.15-6.5 21.33-3.58 18.5-0.65 17.3 0.4L17.3 0.4 16.05 1.4Q15.5 1.8 15.15 1.8L15.15 1.8Q14.6 1.8 14.6 0.85L14.6 0.85Q15.15-5.45 18.95-17.45ZM48.95-7.55L48.95-7.55Q51.05-9.65 54.5-13.6L54.5-13.6Q54.65-13.75 54.75-13.75 54.85-13.75 54.85-13.55L54.85-13.55Q54.85-12.6 54.1-11.7L54.1-11.7Q50.4-7.6 47.55-4.85L47.55-4.85Q41.55 0.7 39.65 0.7L39.65 0.7Q38.9 0.7 38.9-0.25L38.9-0.25Q38.9-2.05 40.95-5.73 43-9.4 45.02-12.58 47.05-15.75 47.05-16.3L47.05-16.3Q47.05-16.6 46.75-16.6L46.75-16.6Q45.55-16.6 42.2-12.9 38.85-9.2 36.55-6.25L36.55-6.25Q34-3.05 32.12-1.15 30.25 0.75 29.65 1L29.65 1 29 1.3Q28.55 1.3 28.55 0.8L28.55 0.8Q28.55 0 29.45-2.05 30.35-4.1 31.25-5.75L31.25-5.75 32.15-7.4 39.95-21.4Q49.15-37.65 54.45-44.5L54.45-44.5Q55.95-46.5 56.55-46.5L56.55-46.5Q56.85-46.5 56.85-46.1L56.85-46.1Q56.85-45.05 55.25-41.8L55.25-41.8Q47.4-27.65 44.35-22.2L44.35-22.2Q42.5-18.9 41-16.32 39.5-13.75 38.87-12.7 38.25-11.65 37.8-10.88 37.35-10.1 37.1-9.55L37.1-9.55Q37.05-9.4 37.05-9.25L37.05-9.25Q37.05-9 37.15-9 37.25-9 37.55-9.3L37.55-9.3Q48.75-21.75 52.25-21.75L52.25-21.75Q52.95-21.75 52.95-21.05L52.95-21.05Q52.95-20.85 52.75-20.18 52.55-19.5 51.6-17.45 50.65-15.4 49.1-12.9L49.1-12.9Q48.15-11.5 46.7-8.9 45.25-6.3 45.25-5.5L45.25-5.5Q45.25-5.05 45.7-5.05L45.7-5.05Q45.85-5.05 46.12-5.18 46.4-5.3 46.75-5.6 47.1-5.9 47.37-6.15 47.65-6.4 48.17-6.88 48.7-7.35 48.95-7.55ZM63.5-16.95L63.5-16.95Q64.09-18.2 64.09-19.15L64.09-19.15Q64.09-19.95 63.6-19.95L63.6-19.95Q63.3-19.95 62.92-19.78 62.55-19.6 62.35-19.4L62.35-19.4 62.1-19.2Q60.55-17.85 58.22-14.28 55.9-10.7 55.9-9.7L55.9-9.7Q55.9-9.5 56-9.5L56-9.5Q56.3-9.5 57.32-10 58.35-10.5 60.27-12.35 62.2-14.2 63.5-16.95ZM61.25-5.5L61.25-5.5Q63.9-7.95 68.84-13.6L68.84-13.6Q69-13.75 69.09-13.75 69.2-13.75 69.2-13.55L69.2-13.55Q69.2-12.6 68.45-11.7L68.45-11.7Q64.75-7.6 61.9-4.85L61.9-4.85Q59.8-2.75 56.9-0.83 54 1.1 52.1 1.1L52.1 1.1Q49.8 1.1 49.8-2.1L49.8-2.1Q49.8-7.4 53.72-13.2 57.65-19 62.8-21.05L62.8-21.05Q64.95-21.95 66.7-21.95L66.7-21.95Q68.65-21.95 68.65-20.4L68.65-20.4Q68.65-17.5 64.55-13.75 60.45-10 55.35-8.05L55.35-8.05Q55.15-8 55-7.7L55-7.7Q54.25-5.65 54.25-4.05L54.25-4.05Q54.25-2.25 55.6-2.25L55.6-2.25Q57.75-2.25 61.25-5.5ZM76.64-10.35L76.64-10.35Q76.24-10.35 76.24-10.65L76.24-10.65Q76.24-10.8 76.39-11.05L76.39-11.05Q79.34-15.65 79.34-17.35L79.34-17.35Q79.34-17.8 78.99-17.8L78.99-17.8Q77.49-17.8 71.94-11L71.94-11Q70.29-8.9 68.87-6.65 67.44-4.4 66.89-3.2L66.89-3.2 66.29-2.05Q65.69-0.85 64.44 0.18 63.19 1.2 61.84 1.2L61.84 1.2Q61.14 1.2 61.14 0.85L61.14 0.85Q61.14 0.55 61.57-0.4 61.99-1.35 62.59-2.5 63.19-3.65 63.79-4.75 64.39-5.85 64.79-6.6L64.79-6.6 65.24-7.35 70.49-16.5Q73.54-22.25 76.89-22.25L76.89-22.25Q77.34-22.25 77.34-21.9L77.34-21.9Q77.34-21.45 75.17-18.18 72.99-14.9 72.64-14L72.64-14Q72.54-13.7 72.54-13.65L72.54-13.65Q72.54-13.55 72.64-13.55 72.74-13.55 72.99-13.8L72.99-13.8Q76.74-18.05 80.94-21.35L80.94-21.35Q81.19-21.6 82.04-22.08 82.89-22.55 83.54-22.55L83.54-22.55Q84.49-22.55 84.49-20.9L84.49-20.9Q84.49-19.1 83.29-16.6 82.09-14.1 80.04-12.2L80.04-12.2 79.84-12Q79.64-11.85 79.42-11.68 79.19-11.5 78.84-11.25 78.49-11 78.14-10.83 77.79-10.65 77.39-10.5 76.99-10.35 76.64-10.35ZM92.44-16.95L92.44-16.95Q93.04-18.2 93.04-19.15L93.04-19.15Q93.04-19.95 92.54-19.95L92.54-19.95Q92.24-19.95 91.86-19.78 91.49-19.6 91.29-19.4L91.29-19.4 91.04-19.2Q89.49-17.85 87.16-14.28 84.84-10.7 84.84-9.7L84.84-9.7Q84.84-9.5 84.94-9.5L84.94-9.5Q85.24-9.5 86.27-10 87.29-10.5 89.22-12.35 91.14-14.2 92.44-16.95ZM90.19-5.5L90.19-5.5Q92.84-7.95 97.79-13.6L97.79-13.6Q97.94-13.75 98.04-13.75 98.14-13.75 98.14-13.55L98.14-13.55Q98.14-12.6 97.39-11.7L97.39-11.7Q93.69-7.6 90.84-4.85L90.84-4.85Q88.74-2.75 85.84-0.83 82.94 1.1 81.04 1.1L81.04 1.1Q78.74 1.1 78.74-2.1L78.74-2.1Q78.74-7.4 82.66-13.2 86.59-19 91.74-21.05L91.74-21.05Q93.89-21.95 95.64-21.95L95.64-21.95Q97.59-21.95 97.59-20.4L97.59-20.4Q97.59-17.5 93.49-13.75 89.39-10 84.29-8.05L84.29-8.05Q84.09-8 83.94-7.7L83.94-7.7Q83.19-5.65 83.19-4.05L83.19-4.05Q83.19-2.25 84.54-2.25L84.54-2.25Q86.69-2.25 90.19-5.5ZM122.69-20.7L122.69-20.7Q119.58-20.55 115.78-20.55L115.78-20.55 115.19-20.55Q108.13-7.75 106.78-3.2L106.78-3.2Q106.58-2.6 106.58-2.1L106.58-2.1Q106.58-0.6 109.23-0.6L109.23-0.6Q110.33-0.6 111.63-1.03 112.94-1.45 114.81-2.53 116.69-3.6 119.03-5.95 121.38-8.3 123.83-11.65L123.83-11.65Q124.13-12.2 124.73-12.2L124.73-12.2Q125.13-12.2 125.13-11.8L125.13-11.8Q125.13-11.7 125.03-11.4L125.03-11.4Q122.63-5.25 118.94-0.4L118.94-0.4Q118.63 0.3 117.44 0.5L117.44 0.5Q113.33 0.7 108.78 0.7L108.78 0.7Q103.58 0.7 100.38 0.35L100.38 0.35Q99.78 0.3 99.78-0.35L99.78-0.35Q99.78-0.75 99.98-1.15L99.98-1.15Q102.83-7.55 110.73-20.6L110.73-20.6 108.48-20.65Q107.83-20.65 107.83-21.05 107.83-21.45 108.26-21.78 108.69-22.1 109.13-22.1L109.13-22.1 111.69-22.1 117.73-31.8Q118.48-33.15 118.48-34.25L118.48-34.25Q118.48-35 118.16-35.55 117.83-36.1 117.48-36.3L117.48-36.3 117.13-36.5Q116.69-36.75 116.69-37.05L116.69-37.05Q116.69-37.25 116.86-37.4 117.03-37.55 117.23-37.6L117.23-37.6 117.44-37.65Q122.58-37.95 128.13-37.95L128.13-37.95Q132.74-37.95 135.53-37.7L135.53-37.7Q136.28-37.7 136.28-37.05L136.28-37.05Q136.28-36.9 136.13-36.5L136.13-36.5Q134.49-32.35 132.78-30L132.78-30Q132.53-29.75 132.24-29.75L132.24-29.75Q131.78-29.75 131.78-30.4L131.78-30.4Q132.03-31.35 132.03-32.45L132.03-32.45Q132.03-36.55 127.94-36.55L127.94-36.55 127.73-36.55Q125.19-36.55 124.08-35.15L124.08-35.15Q121.53-32 117.28-24.3L117.28-24.3Q116.78-23.45 116.03-22.15L116.03-22.15 123.53-22.15Q124.03-22.15 124.03-21.85 124.03-21.55 123.61-21.15 123.19-20.75 122.69-20.7ZM145.18-23.15L145.18-23.15Q145.13-21.75 137.63-11.1L137.63-11.1Q137.48-10.9 137.48-10.8L137.48-10.8Q137.48-10.45 138.78-10.45L138.78-10.45Q141.23-10.45 144.23-14L144.23-14Q144.28-14.05 144.38-14.05L144.38-14.05Q144.63-14.05 144.63-13.55L144.63-13.55Q144.63-13 143.43-11.65L143.43-11.65Q141.28-9.25 138.18-9.25L138.18-9.25Q137.68-9.25 137.28-9.33 136.88-9.4 136.68-9.47 136.48-9.55 136.43-9.55L136.43-9.55 136.18-9.4Q133.38-6 131.03-3.48 128.68-0.95 127.68-0.1L127.68-0.1 126.73 0.7Q125.93 1.3 125.48 1.3L125.48 1.3Q124.88 1.3 124.88 0.35L124.88 0.35Q124.88-2.95 127.51-10.23 130.13-17.5 131.28-19.35L131.28-19.35Q132.88-21.9 135.23-21.9L135.23-21.9Q135.58-21.9 135.58-21.55L135.58-21.55Q135.58-21.3 135.18-20.5L135.18-20.5Q130.83-11.45 129.78-5.05L129.78-5.05Q129.78-4.5 129.98-4.5 130.18-4.5 130.58-4.85L130.58-4.85Q132.73-6.4 135.43-10.25L135.43-10.25Q135.53-10.4 135.53-10.6L135.53-10.6Q135.33-11.05 135.33-11.8L135.33-11.8Q135.33-14.8 138.36-18.48 141.38-22.15 144.48-23.3L144.48-23.3Q144.78-23.4 144.88-23.4L144.88-23.4Q145.18-23.4 145.18-23.15ZM152.83-16.95L152.83-16.95Q153.43-18.2 153.43-19.15L153.43-19.15Q153.43-19.95 152.93-19.95L152.93-19.95Q152.63-19.95 152.26-19.78 151.88-19.6 151.68-19.4L151.68-19.4 151.43-19.2Q149.88-17.85 147.56-14.28 145.23-10.7 145.23-9.7L145.23-9.7Q145.23-9.5 145.33-9.5L145.33-9.5Q145.63-9.5 146.66-10 147.68-10.5 149.61-12.35 151.53-14.2 152.83-16.95ZM150.58-5.5L150.58-5.5Q153.23-7.95 158.18-13.6L158.18-13.6Q158.33-13.75 158.43-13.75 158.53-13.75 158.53-13.55L158.53-13.55Q158.53-12.6 157.78-11.7L157.78-11.7Q154.08-7.6 151.23-4.85L151.23-4.85Q149.13-2.75 146.23-0.83 143.33 1.1 141.43 1.1L141.43 1.1Q139.13 1.1 139.13-2.1L139.13-2.1Q139.13-7.4 143.06-13.2 146.98-19 152.13-21.05L152.13-21.05Q154.28-21.95 156.03-21.95L156.03-21.95Q157.98-21.95 157.98-20.4L157.98-20.4Q157.98-17.5 153.88-13.75 149.78-10 144.68-8.05L144.68-8.05Q144.48-8 144.33-7.7L144.33-7.7Q143.58-5.65 143.58-4.05L143.58-4.05Q143.58-2.25 144.93-2.25L144.93-2.25Q147.08-2.25 150.58-5.5ZM165.98-10.35L165.98-10.35Q165.58-10.35 165.58-10.65L165.58-10.65Q165.58-10.8 165.73-11.05L165.73-11.05Q168.68-15.65 168.68-17.35L168.68-17.35Q168.68-17.8 168.33-17.8L168.33-17.8Q166.83-17.8 161.28-11L161.28-11Q159.63-8.9 158.2-6.65 156.78-4.4 156.23-3.2L156.23-3.2 155.63-2.05Q155.03-0.85 153.78 0.18 152.53 1.2 151.18 1.2L151.18 1.2Q150.48 1.2 150.48 0.85L150.48 0.85Q150.48 0.55 150.9-0.4 151.33-1.35 151.93-2.5 152.53-3.65 153.13-4.75 153.73-5.85 154.13-6.6L154.13-6.6 154.58-7.35 159.83-16.5Q162.88-22.25 166.23-22.25L166.23-22.25Q166.68-22.25 166.68-21.9L166.68-21.9Q166.68-21.45 164.5-18.18 162.33-14.9 161.98-14L161.98-14Q161.88-13.7 161.88-13.65L161.88-13.65Q161.88-13.55 161.98-13.55 162.08-13.55 162.33-13.8L162.33-13.8Q166.08-18.05 170.28-21.35L170.28-21.35Q170.53-21.6 171.38-22.08 172.23-22.55 172.88-22.55L172.88-22.55Q173.83-22.55 173.83-20.9L173.83-20.9Q173.83-19.1 172.63-16.6 171.43-14.1 169.38-12.2L169.38-12.2 169.18-12Q168.98-11.85 168.75-11.68 168.53-11.5 168.18-11.25 167.83-11 167.48-10.83 167.13-10.65 166.73-10.5 166.33-10.35 165.98-10.35ZM178.78-7.1L178.78-7.1 180.88-11.2Q180.88-11.35 180.78-11.35 180.68-11.35 180.53-11.2L180.53-11.2Q178.68-9.05 176.63-6.98 174.58-4.9 173.47-3.9L173.47-3.9 172.38-2.9Q168.63 0.65 167.08 0.65L167.08 0.65Q166.38 0.65 166.38-0.25L166.38-0.25Q166.38-1.25 167.18-3.28 167.97-5.3 168.78-6.8L168.78-6.8 169.58-8.35Q173.78-16.2 175.78-18.85L175.78-18.85Q176.78-20.15 178.22-21.03 179.68-21.9 180.47-21.9L180.47-21.9Q180.97-21.9 180.97-21.55L180.97-21.55Q180.97-21.35 180.78-21L180.78-21Q180.68-20.8 178.72-17.68 176.78-14.55 175.58-12.3L175.58-12.3Q172.28-6.25 172.28-5.35L172.28-5.35Q172.28-5 172.58-5L172.58-5Q173.03-5 174.13-5.9L174.13-5.9Q177.38-8.7 181.28-13.45L181.28-13.45Q183.43-15.75 185.78-19.45L185.78-19.45Q186.43-20.45 187.7-21.18 188.98-21.9 190.03-21.9L190.03-21.9Q190.48-21.9 190.48-21.5L190.48-21.5 190.08-20.55Q189.38-19.3 186.95-15.08 184.53-10.85 184.22-10.3L184.22-10.3Q183.83-9.55 182.4-7.08 180.97-4.6 180.38-3.55L180.38-3.55Q183.53-6.1 185.58-7.95L185.58-7.95Q187.78-10.25 190.73-13.6L190.73-13.6Q190.88-13.75 190.98-13.75 191.08-13.75 191.08-13.55L191.08-13.55Q191.08-12.6 190.33-11.7L190.33-11.7Q188.13-9.3 186.53-7.6L186.53-7.6Q184.43-5.4 179.03-1.2L179.03-1.2 177.72 1.2Q168.08 18.95 164.43 24.3L164.43 24.3Q164.08 24.85 163.53 25.63 162.97 26.4 161.72 27.73 160.47 29.05 159.72 29.05L159.72 29.05Q158.53 29.05 158.53 25.6L158.53 25.6Q158.53 20.5 162.18 14.5L162.18 14.5Q166.13 8.05 174.38 1.25L174.38 1.25Q176.03-1.75 178.78-7.1ZM163.43 14.4L163.43 14.4Q163.03 15 162.47 15.98 161.93 16.95 160.97 19.33 160.03 21.7 160.03 23.3L160.03 23.3Q160.03 24.15 160.33 24.15L160.33 24.15Q160.58 24.15 161.08 23.68 161.58 23.2 161.93 22.7L161.93 22.7 162.28 22.2Q167.22 14.45 173.03 3.7L173.03 3.7Q166.53 9.4 163.43 14.4ZM193.27-3.45L193.27-3.45Q194.07-5.45 195.54-8.1 197.02-10.75 198.12-12.4L198.12-12.4 199.22-14Q199.92-15 200.62-15L200.62-15Q201.17-15 201.17-14.45L201.17-14.45 201.02-13.95Q199.22-9.4 199.22-6.1L199.22-6.1Q199.22-3.45 200.4-1.78 201.57-0.1 204.07-0.1L204.07-0.1Q207.82-0.1 210.12-3.38 212.42-6.65 212.42-10.45L212.42-10.45Q212.42-13.7 210.19-19.73 207.97-25.75 207.97-27.9L207.97-27.9Q207.97-32.55 211.94-35.38 215.92-38.2 220.67-38.2L220.67-38.2Q221.52-38.2 222.34-38.1 223.17-38 224.17-37.77 225.17-37.55 225.77-37.05 226.37-36.55 226.37-35.8L226.37-35.8Q226.37-34.8 224.97-32.4 223.57-30 222.62-28.75L222.62-28.75Q222.27-28.5 222.02-28.5L222.02-28.5Q221.67-28.5 221.67-29.1L221.67-29.1Q221.67-30.5 221.97-32.9L221.97-32.9Q221.97-36.8 218.97-36.8L218.97-36.8Q216.42-36.8 214.65-35.05 212.87-33.3 212.87-30.8L212.87-30.8Q212.87-27.5 215.19-21.6 217.52-15.7 217.52-12.5L217.52-12.5Q217.52-6.5 212.79-2.63 208.07 1.25 202.17 1.25L202.17 1.25Q201.17 1.25 199.77 1.05 198.37 0.85 196.82 0.43 195.27 0 194.19-0.83 193.12-1.65 193.12-2.7L193.12-2.7Q193.12-3.1 193.27-3.45ZM226.02-7.55L226.02-7.55Q228.12-9.65 231.57-13.6L231.57-13.6Q231.72-13.75 231.82-13.75 231.92-13.75 231.92-13.55L231.92-13.55Q231.92-12.6 231.17-11.7L231.17-11.7Q227.47-7.6 224.62-4.85L224.62-4.85Q218.62 0.95 216.67 0.95L216.67 0.95Q215.97 0.95 215.97 0.05L215.97 0.05Q215.97-1 216.77-3.1 217.57-5.2 218.37-6.8L218.37-6.8 219.17-8.35Q220.32-10.4 222.97-15.35 225.62-20.3 228.09-24.7 230.57-29.1 232.77-32.65L232.77-32.65 228.82-32.65Q228.32-32.65 228.32-32.9 228.32-33.15 228.72-33.4 229.12-33.65 229.57-33.65L229.57-33.65Q230.67-33.65 233.42-33.7L233.42-33.7Q235.87-37.55 237.62-39.8L237.62-39.8Q239.17-41.75 239.77-41.75L239.77-41.75Q240.12-41.75 240.12-41.3L240.12-41.3Q240.12-40.25 238.22-36.8L238.22-36.8 236.52-33.7 241.67-33.7Q242.12-33.7 242.12-33.45L242.12-33.45Q242.12-32.65 240.67-32.65L240.67-32.65 235.97-32.65Q224.42-10.75 223.82-9.7L223.82-9.7Q221.72-5.85 221.72-4.7L221.72-4.7Q221.72-4.35 221.97-4.35L221.97-4.35Q222.67-4.35 226.02-7.55ZM233.72-4.85L233.72-4.85Q227.87 0.65 226.22 0.65L226.22 0.65Q225.37 0.65 225.37-0.5 225.37-1.65 226.26-3.85 227.16-6.05 228.06-7.7L228.06-7.7 228.97-9.3Q232.76-15.95 234.72-18.85L234.72-18.85Q235.56-20.1 236.89-20.98 238.22-21.85 239.37-21.85L239.37-21.85Q239.76-21.85 239.76-21.5L239.76-21.5Q239.76-21.25 239.41-20.55L239.41-20.55Q238.81-19.45 236.47-15.3 234.12-11.15 233.66-10.3L233.66-10.3Q231.62-6.7 231.62-5.5L231.62-5.5Q231.62-5.05 231.91-5.05L231.91-5.05Q232.41-5.05 235.12-7.55L235.12-7.55Q237.22-9.65 240.66-13.6L240.66-13.6Q240.81-13.75 240.91-13.75 241.01-13.75 241.01-13.55L241.01-13.55Q241.01-12.6 240.26-11.7L240.26-11.7Q236.56-7.6 233.72-4.85ZM240.37-24.7L240.37-24.7Q239.12-24.7 239.12-26.2L239.12-26.2Q239.12-27.6 240.16-29.03 241.22-30.45 242.47-30.45L242.47-30.45Q243.97-30.45 243.97-28.75L243.97-28.75Q243.97-27.35 242.81-26.03 241.66-24.7 240.37-24.7ZM244.61-7.55L244.61-7.55Q246.71-9.65 250.16-13.6L250.16-13.6Q250.31-13.75 250.41-13.75 250.51-13.75 250.51-13.55L250.51-13.55Q250.51-12.6 249.76-11.7L249.76-11.7Q246.06-7.6 243.21-4.85L243.21-4.85Q237.21 0.95 235.26 0.95L235.26 0.95Q234.56 0.95 234.56 0.05L234.56 0.05Q234.56-1 235.36-3.1 236.16-5.2 236.96-6.8L236.96-6.8 237.76-8.35Q238.91-10.4 241.56-15.35 244.21-20.3 246.69-24.7 249.16-29.1 251.36-32.65L251.36-32.65 247.41-32.65Q246.91-32.65 246.91-32.9 246.91-33.15 247.31-33.4 247.71-33.65 248.16-33.65L248.16-33.65Q249.26-33.65 252.01-33.7L252.01-33.7Q254.46-37.55 256.21-39.8L256.21-39.8Q257.76-41.75 258.36-41.75L258.36-41.75Q258.71-41.75 258.71-41.3L258.71-41.3Q258.71-40.25 256.81-36.8L256.81-36.8 255.11-33.7 260.26-33.7Q260.71-33.7 260.71-33.45L260.71-33.45Q260.71-32.65 259.26-32.65L259.26-32.65 254.56-32.65Q243.01-10.75 242.41-9.7L242.41-9.7Q240.31-5.85 240.31-4.7L240.31-4.7Q240.31-4.35 240.56-4.35L240.56-4.35Q241.26-4.35 244.61-7.55ZM257.61-4.85L257.61-4.85Q255.36-2.7 252.53-0.83 249.71 1.05 247.76 1.05L247.76 1.05Q245.46 1.05 245.46-2.5L245.46-2.5Q245.46-6.25 248.11-10.83 250.76-15.4 254.84-18.65 258.91-21.9 262.56-21.9L262.56-21.9Q264.51-21.9 264.51-20.45L264.51-20.45Q264.51-17.95 261.26-14.8L261.26-14.8Q260.96-14.5 259.96-13.75 258.96-13 258.56-13L258.56-13Q258.31-13 258.31-13.25L258.31-13.25 258.46-13.7Q260.46-17.25 260.46-19.1L260.46-19.1Q260.46-20.1 259.81-20.1L259.81-20.1Q258.26-20.1 255.88-17.07 253.51-14.05 251.76-10.18 250.01-6.3 250.01-4.05L250.01-4.05Q250.01-2.25 251.31-2.25L251.31-2.25Q253.56-2.25 256.96-5.5L256.96-5.5Q259.61-7.95 264.56-13.6L264.56-13.6Q264.71-13.75 264.81-13.75 264.91-13.75 264.91-13.55L264.91-13.55Q264.91-12.6 264.16-11.7L264.16-11.7Q260.46-7.6 257.61-4.85ZM277.81-7.55L277.81-7.55Q279.91-9.65 283.36-13.6L283.36-13.6Q283.51-13.75 283.61-13.75 283.71-13.75 283.71-13.55L283.71-13.55Q283.71-12.6 282.96-11.7L282.96-11.7Q279.26-7.6 276.41-4.85L276.41-4.85Q270.41 0.7 268.51 0.7L268.51 0.7Q267.76 0.7 267.76-0.25L267.76-0.25Q267.76-2.05 269.81-5.73 271.86-9.4 273.88-12.58 275.91-15.75 275.91-16.3L275.91-16.3Q275.91-16.6 275.61-16.6L275.61-16.6Q274.41-16.6 271.06-12.9 267.71-9.2 265.41-6.25L265.41-6.25Q262.86-3.05 260.98-1.15 259.11 0.75 258.51 1L258.51 1 257.86 1.3Q257.41 1.3 257.41 0.8L257.41 0.8Q257.41 0 258.31-2.05 259.21-4.1 260.11-5.75L260.11-5.75 261.01-7.4 268.81-21.4Q278.01-37.65 283.31-44.5L283.31-44.5Q284.81-46.5 285.41-46.5L285.41-46.5Q285.71-46.5 285.71-46.1L285.71-46.1Q285.71-45.05 284.11-41.8L284.11-41.8Q276.26-27.65 273.21-22.2L273.21-22.2Q271.36-18.9 269.86-16.32 268.36-13.75 267.73-12.7 267.11-11.65 266.66-10.88 266.21-10.1 265.96-9.55L265.96-9.55Q265.91-9.4 265.91-9.25L265.91-9.25Q265.91-9 266.01-9 266.11-9 266.41-9.3L266.41-9.3Q277.61-21.75 281.11-21.75L281.11-21.75Q281.81-21.75 281.81-21.05L281.81-21.05Q281.81-20.85 281.61-20.18 281.41-19.5 280.46-17.45 279.51-15.4 277.96-12.9L277.96-12.9Q277.01-11.5 275.56-8.9 274.11-6.3 274.11-5.5L274.11-5.5Q274.11-5.05 274.56-5.05L274.56-5.05Q274.71-5.05 274.98-5.18 275.26-5.3 275.61-5.6 275.96-5.9 276.23-6.15 276.51-6.4 277.03-6.88 277.56-7.35 277.81-7.55ZM309.05-16.35L309.05-16.35Q309.45-16.35 309.83-15.58 310.2-14.8 310.2-14.1L310.2-14.1Q310.2-13.5 310.03-12.9 309.85-12.3 309.7-12L309.7-12 309.5-11.65Q307.05-6.9 302.23-2.9 297.4 1.1 292.55 1.1L292.55 1.1Q290 1.1 288.8-0.73 287.6-2.55 287.6-5.4L287.6-5.4Q287.6-10.4 290.48-15.63 293.35-20.85 297.75-25.15L297.75-25.15Q295.85-25.35 294.2-26.6 292.55-27.85 292.55-29.65L292.55-29.65Q292.55-32.4 297.05-35.1 301.55-37.8 308.2-37.8L308.2-37.8Q310.3-37.8 313.53-37.27 316.75-36.75 318.5-36.75L318.5-36.75Q321.3-36.75 322.5-37.65L322.5-37.65Q322.7-37.7 322.85-37.7L322.85-37.7Q323.1-37.7 323.1-37.5 323.1-37.3 322.9-36.95L322.9-36.95Q321.9-35.35 320.2-34.35 318.5-33.35 316.45-33.35L316.45-33.35Q314.25-33.35 309.98-34.5 305.7-35.65 303.35-35.65L303.35-35.65Q300.7-35.65 298.3-34.15 295.9-32.65 295.9-30.05L295.9-30.05Q295.9-28.95 296.5-27.9 297.1-26.85 297.7-26.35L297.7-26.35 298.3-25.85 298.4-25.75Q304.25-31.3 308.9-32.35L308.9-32.35Q309.15-32.4 309.5-32.4L309.5-32.4Q310-32.4 310-32.1L310-32.1Q310-31.7 309.25-31.4L309.25-31.4Q307.85-30.85 305.25-28.55 302.65-26.25 299.75-22.88 296.85-19.5 294.73-14.83 292.6-10.15 292.6-5.8L292.6-5.8Q292.6-1.35 295.65-1.35L295.65-1.35Q297.85-1.35 299.98-2.78 302.1-4.2 303.73-6.5 305.35-8.8 306.55-11.15 307.75-13.5 308.55-15.9L308.55-15.9Q308.7-16.35 309.05-16.35ZM321.4-16.95L321.4-16.95Q322-18.2 322-19.15L322-19.15Q322-19.95 321.5-19.95L321.5-19.95Q321.2-19.95 320.83-19.78 320.45-19.6 320.25-19.4L320.25-19.4 320-19.2Q318.45-17.85 316.13-14.28 313.8-10.7 313.8-9.7L313.8-9.7Q313.8-9.5 313.9-9.5L313.9-9.5Q314.2-9.5 315.23-10 316.25-10.5 318.18-12.35 320.1-14.2 321.4-16.95ZM319.15-5.5L319.15-5.5Q321.8-7.95 326.75-13.6L326.75-13.6Q326.9-13.75 327-13.75 327.1-13.75 327.1-13.55L327.1-13.55Q327.1-12.6 326.35-11.7L326.35-11.7Q322.65-7.6 319.8-4.85L319.8-4.85Q317.7-2.75 314.8-0.83 311.9 1.1 310 1.1L310 1.1Q307.7 1.1 307.7-2.1L307.7-2.1Q307.7-7.4 311.63-13.2 315.55-19 320.7-21.05L320.7-21.05Q322.85-21.95 324.6-21.95L324.6-21.95Q326.55-21.95 326.55-20.4L326.55-20.4Q326.55-17.5 322.45-13.75 318.35-10 313.25-8.05L313.25-8.05Q313.05-8 312.9-7.7L312.9-7.7Q312.15-5.65 312.15-4.05L312.15-4.05Q312.15-2.25 313.5-2.25L313.5-2.25Q315.65-2.25 319.15-5.5ZM336.55-24.35L336.55-24.35Q340.1-26.85 342.92-30.03 345.75-33.2 347.22-35.88 348.7-38.55 349.45-40.5 350.2-42.45 350.2-43.3L350.2-43.3Q350.2-43.8 349.85-43.8L349.85-43.8Q349.15-43.8 348.15-42.8L348.15-42.8Q346.25-40.9 343.85-37.3 341.45-33.7 339.97-31.13 338.5-28.55 336.15-24.25L336.15-24.25Q336.35-24.25 336.55-24.35ZM331.2-7.55L331.2-7.55Q333.3-9.65 336.75-13.6L336.75-13.6Q336.9-13.75 337-13.75 337.1-13.75 337.1-13.55L337.1-13.55Q337.1-12.6 336.35-11.7L336.35-11.7Q332.65-7.6 329.8-4.85L329.8-4.85Q323.55 1.05 321.85 1.05L321.85 1.05Q321.1 1.05 321.1 0L321.1 0Q321.1-0.55 321.22-1.2 321.35-1.85 321.65-2.63 321.95-3.4 322.17-3.93 322.4-4.45 322.82-5.43 323.25-6.4 323.4-6.75L323.4-6.75Q324.8-9.9 332-23.35L332-23.35Q341.85-41.3 350.1-45.4L350.1-45.4Q351.3-46 352.5-46L352.5-46Q353.9-46 353.9-44.7L353.9-44.7Q353.9-41.7 351.85-38.13 349.8-34.55 346.85-31.55 343.9-28.55 341.07-26.3 338.25-24.05 336.2-22.9L336.2-22.9Q335.9-22.8 335.65-22.45L335.65-22.45Q333.45-18.9 331.35-14.83 329.25-10.75 328.2-8.4L328.2-8.4 327.2-6.1Q326.95-5.35 326.95-5.1L326.95-5.1Q326.95-4.65 327.3-4.65L327.3-4.65Q328.3-4.65 331.2-7.55ZM348.1-24.35L348.1-24.35Q351.65-26.85 354.47-30.03 357.3-33.2 358.77-35.88 360.25-38.55 361-40.5 361.75-42.45 361.75-43.3L361.75-43.3Q361.75-43.8 361.4-43.8L361.4-43.8Q360.7-43.8 359.7-42.8L359.7-42.8Q357.8-40.9 355.4-37.3 353-33.7 351.52-31.13 350.05-28.55 347.7-24.25L347.7-24.25Q347.9-24.25 348.1-24.35ZM342.75-7.55L342.75-7.55Q344.85-9.65 348.3-13.6L348.3-13.6Q348.45-13.75 348.55-13.75 348.65-13.75 348.65-13.55L348.65-13.55Q348.65-12.6 347.9-11.7L347.9-11.7Q344.2-7.6 341.35-4.85L341.35-4.85Q335.1 1.05 333.4 1.05L333.4 1.05Q332.65 1.05 332.65 0L332.65 0Q332.65-0.55 332.77-1.2 332.9-1.85 333.2-2.63 333.5-3.4 333.72-3.93 333.95-4.45 334.37-5.43 334.8-6.4 334.95-6.75L334.95-6.75Q336.35-9.9 343.55-23.35L343.55-23.35Q353.4-41.3 361.65-45.4L361.65-45.4Q362.85-46 364.05-46L364.05-46Q365.45-46 365.45-44.7L365.45-44.7Q365.45-41.7 363.4-38.13 361.35-34.55 358.4-31.55 355.45-28.55 352.62-26.3 349.8-24.05 347.75-22.9L347.75-22.9Q347.45-22.8 347.2-22.45L347.2-22.45Q345-18.9 342.9-14.83 340.8-10.75 339.75-8.4L339.75-8.4 338.75-6.1Q338.5-5.35 338.5-5.1L338.5-5.1Q338.5-4.65 338.85-4.65L338.85-4.65Q339.85-4.65 342.75-7.55ZM355.34-5.7L355.34-5.7Q354.44-3.25 352.49-1.58 350.54 0.1 348.87 0.7 347.19 1.3 345.84 1.3L345.84 1.3Q342.19 1.3 342.19-1.55L342.19-1.55Q342.19-4.45 345.39-6.8L345.39-6.8Q346.89-7.9 348.64-8.25L348.64-8.25Q348.89-8.25 348.89-8.05L348.89-8.05Q348.89-7.95 348.79-7.85L348.79-7.85Q347.54-6.9 346.42-4.9 345.29-2.9 345.29-1.4 345.29 0.1 346.54 0.1L346.54 0.1Q347.54 0.1 348.52-0.73 349.49-1.55 349.99-2.4L349.99-2.4 350.49-3.2Q351.49-4.8 352.17-8.3 352.84-11.8 353.04-14.5L353.04-14.5 353.19-17.2Q353.19-17.6 353.04-17.6L353.04-17.6 352.84-17.5 347.89-11.7Q347.34-11.05 347.14-11.05L347.14-11.05Q346.89-11.05 346.89-11.4L346.89-11.4Q346.89-12.05 347.24-12.4L347.24-12.4 347.69-12.95Q353.39-19.35 354.19-20.7L354.19-20.7Q354.94-21.85 356.39-22.7L356.39-22.7Q357.79-23.5 359.69-23.5L359.69-23.5Q360.19-23.5 360.19-23.1L360.19-23.1Q360.19-22.85 359.79-22.65L359.79-22.65Q359.64-22.6 359.42-22.43 359.19-22.25 358.62-21.6 358.04-20.95 357.59-20.1 357.14-19.25 356.79-17.73 356.44-16.2 356.44-14.35L356.44-14.35Q356.44-8.6 355.34-5.7ZM380.74-3.15L380.74-3.15Q376.59 0.65 375.04 0.65L375.04 0.65Q374.34 0.65 374.34-0.15L374.34-0.15Q374.34-1.15 375.21-3.2 376.09-5.25 376.99-6.8L376.99-6.8 377.89-8.35Q378.09-8.7 378.09-8.8 378.09-8.9 377.99-8.9L377.99-8.9Q377.79-8.9 377.24-8.35L377.24-8.35Q375.74-6.7 373.81-4.83 371.89-2.95 370.69-1.9L370.69-1.9 369.54-0.9Q367.59 0.6 366.54 0.6L366.54 0.6Q365.44 0.6 365.44-1.1L365.44-1.1Q365.44-1.95 365.91-3.7 366.39-5.45 366.64-6.05L366.64-6.05Q367.79-8.85 369.51-11.5 371.24-14.15 373.59-16.57 375.94-19 379.06-20.5 382.19-22 385.54-22L385.54-22Q388.34-22 388.34-21.15L388.34-21.15Q388.34-20.65 387.09-20.65L387.09-20.65Q382.49-20.65 378.46-16.73 374.44-12.8 371.94-7.7L371.94-7.7Q371.24-6.3 371.24-5.35L371.24-5.35Q371.24-4.8 371.59-4.8L371.59-4.8Q372.19-4.8 373.14-5.65L373.14-5.65Q373.74-6.2 374.76-7.1 375.79-8 378.09-10.55 380.39-13.1 381.74-15.3L381.74-15.3Q381.94-15.7 382.36-16.25 382.79-16.8 383.99-17.73 385.19-18.65 386.39-18.65L386.39-18.65Q387.04-18.65 387.04-18.3L387.04-18.3Q387.04-18.2 386.89-17.95L386.89-17.95Q386.69-17.55 385.76-15.95 384.84-14.35 384.04-12.93 383.24-11.5 382.34-9.83 381.44-8.15 380.91-6.95 380.39-5.75 380.39-5.35L380.39-5.35Q380.39-5.05 380.64-5.05L380.64-5.05Q381.39-5.05 384.29-7.95L384.29-7.95Q386.49-10.25 389.44-13.6L389.44-13.6Q389.59-13.75 389.69-13.75 389.79-13.75 389.79-13.55L389.79-13.55Q389.79-12.6 389.04-11.7L389.04-11.7Q384.14-6.25 380.74-3.15ZM391.98-3.45L391.98-3.45Q392.78-5.45 394.26-8.1 395.73-10.75 396.83-12.4L396.83-12.4 397.93-14Q398.63-15 399.33-15L399.33-15Q399.88-15 399.88-14.45L399.88-14.45 399.73-13.95Q397.93-9.4 397.93-6.1L397.93-6.1Q397.93-3.45 399.11-1.78 400.28-0.1 402.78-0.1L402.78-0.1Q406.53-0.1 408.83-3.38 411.13-6.65 411.13-10.45L411.13-10.45Q411.13-13.7 408.91-19.73 406.68-25.75 406.68-27.9L406.68-27.9Q406.68-32.55 410.66-35.38 414.63-38.2 419.38-38.2L419.38-38.2Q420.23-38.2 421.06-38.1 421.88-38 422.88-37.77 423.88-37.55 424.48-37.05 425.08-36.55 425.08-35.8L425.08-35.8Q425.08-34.8 423.68-32.4 422.28-30 421.33-28.75L421.33-28.75Q420.98-28.5 420.73-28.5L420.73-28.5Q420.38-28.5 420.38-29.1L420.38-29.1Q420.38-30.5 420.68-32.9L420.68-32.9Q420.68-36.8 417.68-36.8L417.68-36.8Q415.13-36.8 413.36-35.05 411.58-33.3 411.58-30.8L411.58-30.8Q411.58-27.5 413.91-21.6 416.23-15.7 416.23-12.5L416.23-12.5Q416.23-6.5 411.51-2.63 406.78 1.25 400.88 1.25L400.88 1.25Q399.88 1.25 398.48 1.05 397.08 0.85 395.53 0.43 393.98 0 392.91-0.83 391.83-1.65 391.83-2.7L391.83-2.7Q391.83-3.1 391.98-3.45ZM424.73-7.55L424.73-7.55Q426.83-9.65 430.28-13.6L430.28-13.6Q430.43-13.75 430.53-13.75 430.63-13.75 430.63-13.55L430.63-13.55Q430.63-12.6 429.88-11.7L429.88-11.7Q426.18-7.6 423.33-4.85L423.33-4.85Q417.33 0.95 415.38 0.95L415.38 0.95Q414.68 0.95 414.68 0.05L414.68 0.05Q414.68-1 415.48-3.1 416.28-5.2 417.08-6.8L417.08-6.8 417.88-8.35Q419.03-10.4 421.68-15.35 424.33-20.3 426.81-24.7 429.28-29.1 431.48-32.65L431.48-32.65 427.53-32.65Q427.03-32.65 427.03-32.9 427.03-33.15 427.43-33.4 427.83-33.65 428.28-33.65L428.28-33.65Q429.38-33.65 432.13-33.7L432.13-33.7Q434.58-37.55 436.33-39.8L436.33-39.8Q437.88-41.75 438.48-41.75L438.48-41.75Q438.83-41.75 438.83-41.3L438.83-41.3Q438.83-40.25 436.93-36.8L436.93-36.8 435.23-33.7 440.38-33.7Q440.83-33.7 440.83-33.45L440.83-33.45Q440.83-32.65 439.38-32.65L439.38-32.65 434.68-32.65Q423.13-10.75 422.53-9.7L422.53-9.7Q420.43-5.85 420.43-4.7L420.43-4.7Q420.43-4.35 420.68-4.35L420.68-4.35Q421.38-4.35 424.73-7.55ZM447.38-17.6L447.38-17.6Q447.83-17.5 447.83-17.3L447.83-17.3Q447.83-17 447.43-16.6L447.43-16.6Q446.88-16.05 445.8-15.15 444.73-14.25 444.53-14.05L444.53-14.05 443.83-13.1Q442.78-10.15 440.6-6.98 438.43-3.8 435.3-1.4 432.18 1 429.33 1L429.33 1Q425.78 1 425.78-3.35L425.78-3.35Q425.78-7.2 428.28-11.68 430.78-16.15 434.75-19.33 438.73-22.5 442.58-22.5L442.58-22.5Q445.38-22.5 445.38-20.3L445.38-20.3Q445.38-19.1 444.18-17.05L444.18-17.05Q444.13-17 444.13-16.9 444.13-16.8 444.23-16.8L444.23-16.8Q446.08-17.55 447.38-17.6ZM442.63-16.4L442.63-16.4Q443.03-18.15 443.03-19.1L443.03-19.1Q443.03-21.2 441.63-21.2L441.63-21.2Q439.68-21.2 436.78-17.6 433.88-14 431.8-9.5 429.73-5 429.73-2.4L429.73-2.4Q429.73-0.5 431.08-0.5L431.08-0.5Q433.18-0.5 436.1-4.7 439.03-8.9 439.63-13.15L439.63-13.15Q439.58-13.25 439.58-13.45L439.58-13.45Q439.58-14.9 442.18-16.05L442.18-16.05Q442.58-16.2 442.63-16.4ZM455.48-10.35L455.48-10.35Q455.08-10.35 455.08-10.65L455.08-10.65Q455.08-10.8 455.23-11.05L455.23-11.05Q458.18-15.65 458.18-17.35L458.18-17.35Q458.18-17.8 457.83-17.8L457.83-17.8Q456.33-17.8 450.78-11L450.78-11Q449.13-8.9 447.7-6.65 446.28-4.4 445.73-3.2L445.73-3.2 445.13-2.05Q444.53-0.85 443.28 0.18 442.03 1.2 440.68 1.2L440.68 1.2Q439.98 1.2 439.98 0.85L439.98 0.85Q439.98 0.55 440.4-0.4 440.83-1.35 441.43-2.5 442.03-3.65 442.63-4.75 443.23-5.85 443.63-6.6L443.63-6.6 444.08-7.35 449.33-16.5Q452.38-22.25 455.73-22.25L455.73-22.25Q456.18-22.25 456.18-21.9L456.18-21.9Q456.18-21.45 454-18.18 451.83-14.9 451.48-14L451.48-14Q451.38-13.7 451.38-13.65L451.38-13.65Q451.38-13.55 451.48-13.55 451.58-13.55 451.83-13.8L451.83-13.8Q455.58-18.05 459.78-21.35L459.78-21.35Q460.03-21.6 460.88-22.08 461.73-22.55 462.38-22.55L462.38-22.55Q463.33-22.55 463.33-20.9L463.33-20.9Q463.33-19.1 462.13-16.6 460.93-14.1 458.88-12.2L458.88-12.2 458.68-12Q458.48-11.85 458.25-11.68 458.03-11.5 457.68-11.25 457.33-11 456.98-10.83 456.63-10.65 456.23-10.5 455.83-10.35 455.48-10.35ZM468.27-7.1L468.27-7.1 470.37-11.2Q470.37-11.35 470.27-11.35 470.17-11.35 470.02-11.2L470.02-11.2Q468.17-9.05 466.12-6.98 464.07-4.9 462.97-3.9L462.97-3.9 461.87-2.9Q458.12 0.65 456.57 0.65L456.57 0.65Q455.87 0.65 455.87-0.25L455.87-0.25Q455.87-1.25 456.67-3.28 457.47-5.3 458.27-6.8L458.27-6.8 459.07-8.35Q463.27-16.2 465.27-18.85L465.27-18.85Q466.27-20.15 467.72-21.03 469.17-21.9 469.97-21.9L469.97-21.9Q470.47-21.9 470.47-21.55L470.47-21.55Q470.47-21.35 470.27-21L470.27-21Q470.17-20.8 468.22-17.68 466.27-14.55 465.07-12.3L465.07-12.3Q461.77-6.25 461.77-5.35L461.77-5.35Q461.77-5 462.07-5L462.07-5Q462.52-5 463.62-5.9L463.62-5.9Q466.87-8.7 470.77-13.45L470.77-13.45Q472.92-15.75 475.27-19.45L475.27-19.45Q475.92-20.45 477.2-21.18 478.47-21.9 479.52-21.9L479.52-21.9Q479.97-21.9 479.97-21.5L479.97-21.5 479.57-20.55Q478.87-19.3 476.45-15.08 474.02-10.85 473.72-10.3L473.72-10.3Q473.32-9.55 471.9-7.08 470.47-4.6 469.87-3.55L469.87-3.55Q473.02-6.1 475.07-7.95L475.07-7.95Q477.27-10.25 480.22-13.6L480.22-13.6Q480.37-13.75 480.47-13.75 480.57-13.75 480.57-13.55L480.57-13.55Q480.57-12.6 479.82-11.7L479.82-11.7Q477.62-9.3 476.02-7.6L476.02-7.6Q473.92-5.4 468.52-1.2L468.52-1.2 467.22 1.2Q457.57 18.95 453.92 24.3L453.92 24.3Q453.57 24.85 453.02 25.63 452.47 26.4 451.22 27.73 449.97 29.05 449.22 29.05L449.22 29.05Q448.02 29.05 448.02 25.6L448.02 25.6Q448.02 20.5 451.67 14.5L451.67 14.5Q455.62 8.05 463.87 1.25L463.87 1.25Q465.52-1.75 468.27-7.1ZM452.92 14.4L452.92 14.4Q452.52 15 451.97 15.98 451.42 16.95 450.47 19.33 449.52 21.7 449.52 23.3L449.52 23.3Q449.52 24.15 449.82 24.15L449.82 24.15Q450.07 24.15 450.57 23.68 451.07 23.2 451.42 22.7L451.42 22.7 451.77 22.2Q456.72 14.45 462.52 3.7L462.52 3.7Q456.02 9.4 452.92 14.4Z" opacity="1" transform="matrix(1,0,0,1,0,0)" fill="#e71348" class="slogan-text-1" data-fill-palette-color="secondary" id="text-1"></path></svg></g></svg></g></svg></g></svg></g><g><svg viewBox="0 0 244.43135999999998 244.43135999999998" height="244.43135999999998" width="244.43135999999998"><g><svg viewBox="0 0 244.43135999999998 244.43135999999998" height="244.43135999999998" width="244.43135999999998"><g transform="matrix(1,0,0,1,64.60265593644992,76.32422245331847)"><svg viewBox="0 0 115.22604812710014 91.78291509336303" height="91.78291509336303" width="115.22604812710014"><g><svg xmlns="http://www.w3.org/2000/svg" xmlns:xlink="http://www.w3.org/1999/xlink" version="1.1" x="0" y="0" viewBox="0.7289999999999992 9.845999999999997 98.627 78.561" enable-background="new 0 0 100 100" xml:space="preserve" height="91.78291509336303" width="115.22604812710014" class="icon-cg-0" data-fill-palette-color="accent" id="cg-0"><g fill="#4169e1" data-fill-palette-color="accent"><path d="M95.909 80.729H82.137c0 0 11.273-11.829 11.649-12.311 1.372-1.756 1.259-5.061-0.171-7.119-1.666-2.789-5.282-6.651-10.937-10.109-0.066-0.047-27.044-15.75-27.044-15.75-0.062-0.036-0.106-0.046-0.163-0.075-0.095-0.048-0.314-0.141-0.327-0.144-1.258-0.46-2.714-0.05-3.517 1.1-0.956 1.37-0.619 3.256 0.751 4.21l17.09 11.911c-0.856 0.898-1.92 2.567-1.92 4.557V71.76L52.488 80.57c-0.142 0.083-0.247 0.164-0.335 0.243-1.256 0.972-1.637 2.737-0.813 4.146 0.598 1.019 1.67 1.588 2.771 1.588 0.551 0 1.108-0.143 1.617-0.44l16.646-9.739c1.382-0.881 1.555-2.302 1.556-2.314l1.55-10.839c0.836 0.348 1.735 0.794 2.576 1.352 0.885 0.592 1.763 1.4 2.54 2.196l-8.874 14.069c-0.411 0.622-1.33 1.71-0.812 4.002 0.332 1.479 2.03 2.786 3.396 2.786h21.603c1.903 0 3.447-1.54 3.447-3.449C99.356 82.27 97.812 80.729 95.909 80.729z" fill="#4169e1" data-fill-palette-color="accent"></path><circle cx="16.691" cy="16.612" r="6.8" fill="#4169e1" data-fill-palette-color="accent"></circle><circle cx="60.032" cy="57.525" r="6.5" fill="#4169e1" data-fill-palette-color="accent"></circle><path d="M24.873 25.193H9.205c-4.636 0-8.476 3.778-8.476 8.499v22.938c0 3.907 5.492 3.907 5.492 0V34.227h2.236l0.016 50.509c0 2.026 1.643 3.671 3.667 3.671 2.031 0 3.673-1.645 3.673-3.671l-0.012-27.777h2.471l-0.011 27.777c0 2.026 1.643 3.671 3.672 3.671 2.026 0 3.668-1.645 3.668-3.671l0.016-50.509h2.234v22.402c0 3.907 5.492 3.907 5.492 0V33.691C33.346 28.971 29.509 25.193 24.873 25.193z" fill="#4169e1" data-fill-palette-color="accent"></path></g><g fill="#4169e1" data-fill-palette-color="accent"><path d="M60.472 25.729c-0.006-0.094-0.009-0.19-0.009-0.287 0-3.878-3.154-7.033-7.032-7.033h-8.396c-3.878 0-7.034 3.154-7.034 7.033v62.529h10.431V25.443c0-1.373 0.557-2.615 1.456-3.52 0.094 0.102 0.186 0.204 0.283 0.307 0.802 0.844 1.494 1.575 1.494 3.213 0 3.877 3.156 7.033 7.034 7.033h6.68v-0.004c0.029 0.001 0.058 0.004 0.085 0.004 3.287 0 6.179-2.328 6.874-5.537l0.268-1.234L60.472 25.729zM46.398 25.443v60.495h-6.364v-3.417h4.414v-2.094h-4.414v-3.435h2.412v-2.095h-2.412v-3.434h4.414V69.37h-4.414v-3.433h2.412v-2.094h-2.412v-3.436h4.414v-2.094h-4.414v-3.433h2.412v-2.094h-2.412v-3.436h4.414v-2.094h-4.414v-3.435h2.412v-2.093h-2.412v-3.437h4.414v-2.094h-4.414v-3.434h2.412v-2.094h-2.412v-3.435h4.414v-2.094h-4.384c0.159-2.615 2.315-4.7 4.97-4.7h3.454C47.198 21.719 46.398 23.49 46.398 25.443zM58.698 30.442c-2.757 0-5-2.243-5-4.999 0-2.451-1.186-3.7-2.053-4.613-0.01-0.011-0.019-0.021-0.028-0.032 0.563-0.222 1.173-0.354 1.813-0.354 2.756 0 4.998 2.242 4.998 4.999 0 1.954 0.803 3.724 2.094 4.999H58.698zM65.463 30.442c-1.921 0-3.591-1.087-4.429-2.679l8.866-0.02C69.056 29.361 67.352 30.442 65.463 30.442z" fill="#4169e1" data-fill-palette-color="accent"></path></g></svg></g></svg></g><g id="text-0"><path d="M30.342 94.25v0c-0.108 0.28-0.278 0.436-0.512 0.467-0.236 0.038-0.463 0.015-0.681-0.069v0c-0.457-0.204-0.676-0.414-0.658-0.628 0.018-0.214 0.081-0.462 0.189-0.741v0c0.34-0.883 0.419-1.563 0.238-2.041-0.178-0.483-0.492-0.864-0.941-1.144-0.441-0.284-0.922-0.526-1.445-0.727v0l-19.719-7.587-1.099 2.856c-0.33 0.951-0.412 1.759-0.246 2.423 0.172 0.666 0.602 1.275 1.29 1.825 0.694 0.553 1.623 1.164 2.788 1.833v0c0.239 0.121 0.36 0.364 0.362 0.728 0.002 0.365-0.055 0.7-0.172 1.005v0c-0.074 0.193-0.224 0.378-0.45 0.556-0.234 0.181-0.488 0.219-0.761 0.114v0l-5.777-2.362c-0.386-0.148-0.607-0.362-0.664-0.641-0.053-0.27-0.021-0.558 0.097-0.863v0l7.776-20.213c0.115-0.299 0.281-0.527 0.5-0.686 0.222-0.15 0.526-0.151 0.912-0.003v0l5.887 2.073c0.274 0.105 0.437 0.304 0.489 0.595 0.046 0.289 0.027 0.542-0.057 0.76v0c-0.105 0.274-0.279 0.539-0.52 0.796-0.242 0.257-0.498 0.366-0.768 0.326v0c-1.312-0.283-2.414-0.447-3.305-0.489-0.884-0.04-1.611 0.123-2.181 0.489-0.563 0.369-1.046 1.03-1.448 1.982v0l-1.08 2.809 19.718 7.586c0.535 0.17 1.057 0.307 1.567 0.41 0.516 0.106 1.005 0.033 1.466-0.218 0.461-0.251 0.855-0.803 1.183-1.655v0c0.105-0.274 0.223-0.496 0.354-0.668 0.13-0.171 0.435-0.183 0.913-0.034v0c0.218 0.084 0.402 0.219 0.551 0.405 0.15 0.186 0.172 0.416 0.067 0.69v0c-0.396 0.862-0.751 1.682-1.065 2.461-0.314 0.779-0.625 1.57-0.934 2.373v0c-0.634 1.649-1.256 3.384-1.864 5.207z" fill="#4169e1" data-fill-palette-color="accent"></path><path d="M40.816 72.917v0c-1.009 1.49-2.244 2.393-3.705 2.708-1.457 0.31-2.785 0.059-3.982-0.752v0c-1.248-0.844-2.006-1.829-2.276-2.953-0.275-1.128-0.223-2.34 0.156-3.637 0.379-1.297 0.934-2.616 1.664-3.957 0.73-1.341 1.465-2.634 2.205-3.881v0l-2.898-1.961c-1.148-0.777-2.242-1.099-3.283-0.966-1.034 0.137-2.015 0.89-2.941 2.259v0c-0.463 0.684-0.678 1.477-0.644 2.377 0.033 0.891 0.466 1.619 1.299 2.184v0c0.392 0.265 0.789 0.393 1.19 0.382 0.396-0.014 0.735-0.07 1.019-0.167 0.274-0.096 0.436-0.127 0.486-0.094v0c0.099 0.067 0.183 0.329 0.252 0.787 0.063 0.453-0.069 0.923-0.398 1.409v0c-0.512 0.756-1.191 1.154-2.038 1.192-0.843 0.033-1.607-0.182-2.292-0.646v0c-0.927-0.628-1.465-1.41-1.611-2.346-0.152-0.94-0.044-1.945 0.326-3.015 0.37-1.07 0.869-2.068 1.497-2.996v0c0.747-1.104 1.605-2.085 2.572-2.944 0.973-0.855 2.066-1.363 3.277-1.524 1.218-0.158 2.583 0.275 4.096 1.299v0l8.545 5.784c0.258 0.142 0.592 0.28 1.001 0.412 0.406 0.138 0.834 0.154 1.283 0.048 0.444-0.11 0.833-0.41 1.166-0.902v0c0.116-0.171 0.238-0.286 0.366-0.344 0.13-0.049 0.327 0.016 0.592 0.196v0c0.221 0.149 0.31 0.387 0.267 0.712-0.043 0.325-0.148 0.665-0.315 1.018-0.163 0.348-0.32 0.633-0.47 0.854v0c-0.613 0.905-1.422 1.537-2.428 1.893-1.003 0.352-2.012 0.272-3.027-0.237v0c0.616 1.206 0.814 2.507 0.594 3.903-0.219 1.405-0.734 2.707-1.545 3.905zM39.633 70.402v0c0.56-0.828 0.871-1.733 0.932-2.714 0.051-0.98-0.138-1.925-0.568-2.836-0.432-0.92-1.086-1.677-1.964-2.271v0l-2.095-1.418c-1.533 2.633-2.346 4.703-2.44 6.209-0.088 1.51 0.588 2.752 2.029 3.727v0c1.662 1.125 3.03 0.892 4.106-0.697z" fill="#4169e1" data-fill-palette-color="accent"></path><path d="M51.292 58.289v0c-0.146 0.146-0.335 0.197-0.566 0.154-0.226-0.038-0.412-0.131-0.558-0.277v0c-0.273-0.359-0.359-0.616-0.26-0.771 0.09-0.155 0.239-0.336 0.447-0.544v0c0.586-0.583 0.886-1.08 0.902-1.489 0.01-0.405-0.135-0.792-0.436-1.161-0.305-0.364-0.635-0.723-0.987-1.077v0l-7.151-7.187c-0.376-0.378-0.741-0.716-1.094-1.014-0.353-0.288-0.734-0.431-1.144-0.427-0.41 0.013-0.908 0.311-1.494 0.894v0c-0.184 0.183-0.383 0.329-0.595 0.437-0.208 0.103-0.467-0.001-0.777-0.313v0c-0.315-0.317-0.335-0.672-0.061-1.068v0c0.818-1.106 1.41-1.986 1.774-2.639 0.369-0.659 0.637-1.174 0.803-1.547 0.171-0.377 0.348-0.68 0.532-0.911v0c0.151-0.188 0.326-0.296 0.524-0.323 0.193-0.033 0.417 0.079 0.671 0.333v0l10.869 10.923c0.353 0.354 0.712 0.683 1.079 0.985 0.367 0.303 0.758 0.445 1.172 0.427 0.42-0.023 0.922-0.325 1.509-0.908v0c0.189-0.188 0.366-0.331 0.531-0.43 0.165-0.108 0.417-0.015 0.756 0.277v0c0.146 0.146 0.242 0.328 0.288 0.546 0.051 0.222-0.006 0.415-0.171 0.579v0c-0.652 0.564-1.238 1.095-1.757 1.593-0.524 0.503-1.068 1.034-1.63 1.594v0c-0.567 0.564-1.096 1.1-1.588 1.608-0.496 0.513-1.026 1.091-1.588 1.736zM36.158 36.871v0c-0.586 0.583-1.261 0.888-2.024 0.914-0.759 0.031-1.409-0.225-1.95-0.768v0c-0.48-0.482-0.666-1.152-0.56-2.01 0.106-0.858 0.461-1.587 1.065-2.189v0c0.524-0.522 1.138-0.765 1.841-0.731 0.698 0.03 1.328 0.329 1.892 0.896v0c0.498 0.501 0.725 1.126 0.681 1.875-0.044 0.759-0.359 1.43-0.945 2.013z" fill="#4169e1" data-fill-palette-color="accent"></path><path d="M61.776 48.652v0c-0.167 0.122-0.361 0.144-0.583 0.067-0.218-0.072-0.388-0.191-0.509-0.357v0c-0.242-0.376-0.297-0.637-0.165-0.784 0.128-0.152 0.3-0.307 0.515-0.464v0c0.667-0.488 1.041-0.936 1.123-1.343 0.087-0.411 0.007-0.819-0.239-1.225-0.242-0.409-0.511-0.816-0.806-1.219v0l-12.77-17.443c-0.311-0.425-0.621-0.809-0.93-1.153-0.304-0.347-0.66-0.546-1.068-0.594-0.402-0.053-0.937 0.165-1.603 0.653v0c-0.215 0.158-0.433 0.272-0.654 0.343-0.221 0.071-0.461-0.071-0.721-0.427v0c-0.264-0.36-0.23-0.715 0.1-1.064v0c0.97-0.966 1.687-1.747 2.151-2.343 0.459-0.592 0.801-1.061 1.027-1.409 0.225-0.347 0.446-0.62 0.663-0.82v0c0.172-0.159 0.361-0.24 0.567-0.241 0.196-0.003 0.398 0.138 0.607 0.423v0l15.882 21.694c0.295 0.403 0.602 0.782 0.919 1.137 0.312 0.358 0.677 0.558 1.095 0.599 0.413 0.045 0.953-0.177 1.62-0.666v0c0.215-0.158 0.414-0.275 0.598-0.351 0.18-0.082 0.412 0.049 0.697 0.394v0c0.122 0.167 0.193 0.359 0.211 0.577 0.017 0.227-0.071 0.411-0.264 0.553v0c-0.724 0.456-1.383 0.893-1.977 1.311-0.589 0.414-1.206 0.858-1.851 1.33v0c-0.64 0.469-1.244 0.919-1.812 1.351-0.562 0.428-1.17 0.918-1.823 1.471z" fill="#4169e1" data-fill-palette-color="accent"></path><path d="M82.548 36.97v0c-1.868 0.884-3.712 1.219-5.532 1.004-1.82-0.215-3.451-0.848-4.892-1.898-1.442-1.051-2.54-2.374-3.297-3.971v0c-0.747-1.578-1.131-3.112-1.149-4.6-0.022-1.494 0.23-2.871 0.755-4.13 0.528-1.268 1.239-2.375 2.133-3.322 0.891-0.938 1.872-1.661 2.944-2.169v0c1.868-0.884 3.709-1.218 5.523-1 1.82 0.215 3.451 0.848 4.893 1.898 1.439 1.045 2.537 2.368 3.296 3.971v0c0.745 1.572 1.122 3.109 1.131 4.609 0.01 1.5-0.251 2.881-0.782 4.143-0.531 1.262-1.24 2.365-2.128 3.309-0.894 0.947-1.859 1.666-2.895 2.156zM81.846 35.488v0c1.307-0.619 2.158-1.494 2.552-2.625 0.391-1.137 0.453-2.416 0.185-3.838-0.262-1.425-0.741-2.872-1.436-4.342v0c-0.67-1.416-1.458-2.628-2.365-3.638-0.897-1.006-1.905-1.687-3.024-2.041-1.113-0.358-2.297-0.24-3.55 0.353v0c-1.307 0.619-2.168 1.495-2.583 2.628-0.412 1.124-0.486 2.384-0.224 3.779 0.268 1.392 0.756 2.835 1.463 4.33v0c0.656 1.386 1.437 2.598 2.342 3.637 0.902 1.048 1.914 1.753 3.037 2.114 1.119 0.37 2.32 0.251 3.603-0.357z" fill="#4169e1" data-fill-palette-color="accent"></path><path d="M96.067 31.281v0c-0.202 0.043-0.388-0.017-0.559-0.178-0.169-0.155-0.275-0.334-0.317-0.536v0c-0.034-0.449 0.033-0.712 0.201-0.789 0.16-0.082 0.383-0.153 0.67-0.213v0c0.809-0.171 1.331-0.425 1.566-0.761 0.229-0.335 0.317-0.738 0.265-1.211-0.059-0.471-0.14-0.952-0.243-1.441v0l-2.1-9.919c-0.11-0.522-0.233-1.003-0.367-1.445-0.139-0.434-0.382-0.761-0.728-0.98-0.351-0.212-0.931-0.232-1.741-0.061v0c-0.254 0.054-0.5 0.068-0.736 0.043-0.23-0.026-0.391-0.255-0.483-0.684v0c-0.092-0.437 0.084-0.747 0.529-0.93v0c1.288-0.484 2.262-0.901 2.924-1.252 0.668-0.353 1.166-0.639 1.495-0.858 0.328-0.219 0.636-0.376 0.922-0.472v0c0.223-0.074 0.428-0.07 0.616 0.013 0.18 0.078 0.307 0.293 0.382 0.645v0l0.567 2.68 0.127-0.027c0.783-1.161 1.628-2.16 2.533-2.999 0.912-0.84 1.802-1.352 2.67-1.536v0c1.011-0.214 1.863-0.002 2.556 0.635 0.687 0.638 1.119 1.375 1.296 2.209v0c0.153 0.724 0.073 1.473-0.24 2.248-0.319 0.776-0.942 1.262-1.868 1.458v0c-0.463 0.098-0.852 0.081-1.166-0.049-0.313-0.125-0.492-0.23-0.536-0.316v0c-0.012-0.059 0.088-0.26 0.301-0.605 0.213-0.345 0.274-0.736 0.181-1.173v0c-0.109-0.515-0.334-0.904-0.676-1.165-0.342-0.262-0.744-0.343-1.207-0.246v0c-0.496 0.105-1.073 0.486-1.731 1.143-0.659 0.651-1.265 1.395-1.816 2.235v0l2.238 10.574c0.104 0.489 0.227 0.96 0.37 1.414 0.144 0.453 0.394 0.785 0.753 0.996 0.364 0.209 0.951 0.228 1.76 0.056v0c0.261-0.055 0.487-0.079 0.679-0.072 0.197-0.001 0.359 0.214 0.484 0.644v0c0.043 0.202 0.025 0.407-0.054 0.614-0.077 0.214-0.23 0.345-0.458 0.394v0c-0.854 0.119-1.634 0.247-2.342 0.383-0.714 0.137-1.458 0.288-2.234 0.452v0c-0.783 0.166-1.518 0.328-2.207 0.488-0.695 0.161-1.454 0.359-2.276 0.594z" fill="#4169e1" data-fill-palette-color="accent"></path><path d="M130.069 29.449v0c-0.18-0.012-0.357-0.061-0.531-0.147-0.168-0.085-0.29-0.204-0.366-0.356v0l-8.391-23.171-0.13-0.009-1.122 17.542c-0.012 0.56 0.001 1.099 0.038 1.617 0.037 0.524 0.237 0.969 0.6 1.334 0.356 0.365 0.992 0.58 1.91 0.643v0c0.319 0.022 0.58 0.07 0.782 0.145 0.202 0.074 0.302 0.362 0.301 0.862v0c-0.016 0.233-0.098 0.448-0.245 0.645-0.147 0.197-0.354 0.286-0.62 0.268v0c-0.617-0.069-1.114-0.124-1.492-0.164-0.384-0.047-0.752-0.089-1.104-0.126-0.352-0.038-0.823-0.077-1.415-0.118v0c-0.884-0.061-1.6-0.104-2.146-0.128-0.546-0.024-1.29-0.039-2.232-0.044v0c-0.299-0.021-0.498-0.138-0.597-0.352-0.105-0.214-0.15-0.438-0.134-0.671v0c0.061-0.497 0.197-0.768 0.407-0.814 0.21-0.046 0.465-0.058 0.764-0.037v0c0.938 0.065 1.604-0.059 2-0.373 0.389-0.314 0.645-0.727 0.768-1.24 0.129-0.506 0.212-1.038 0.25-1.596v0l1.292-17.531c0.065-0.944 0.011-1.653-0.163-2.126-0.175-0.466-0.475-0.811-0.901-1.034-0.426-0.223-0.973-0.418-1.643-0.585v0c-0.406-0.115-0.691-0.208-0.853-0.28-0.155-0.071-0.217-0.342-0.184-0.814v0c0.034-0.499 0.23-0.759 0.585-0.782 0.355-0.016 0.769-0.007 1.241 0.026v0c1.443 0.1 2.708 0.304 3.796 0.613 1.087 0.316 2.021 0.831 2.8 1.547 0.779 0.722 1.388 1.763 1.829 3.123v0l6.421 17.583 0.13 0.009 10.193-20.874 2.514 0.174c0.884 0.061 1.747 0.107 2.586 0.138 0.84 0.025 1.733 0.056 2.68 0.095v0c0.293 0.02 0.492 0.138 0.597 0.352 0.105 0.214 0.15 0.438 0.134 0.671v0c-0.068 0.503-0.207 0.777-0.418 0.823-0.21 0.039-0.461 0.048-0.754 0.028v0c-0.911-0.063-1.578 0.061-2 0.373-0.422 0.312-0.695 0.724-0.817 1.236-0.122 0.506-0.219 1.041-0.291 1.604v0l-1.213 17.536c-0.005 0.561 0.017 1.1 0.069 1.619 0.051 0.525 0.264 0.97 0.639 1.337 0.376 0.367 1.019 0.582 1.93 0.644v0c0.293 0.02 0.54 0.067 0.742 0.142 0.202 0.074 0.302 0.362 0.301 0.862v0c-0.016 0.233-0.091 0.448-0.225 0.646-0.134 0.198-0.347 0.287-0.64 0.267v0c-0.94-0.125-1.835-0.224-2.685-0.296-0.85-0.072-1.718-0.139-2.603-0.2v0c-1.709-0.118-3.524-0.2-5.445-0.246v0c-0.293-0.02-0.492-0.138-0.597-0.352-0.105-0.214-0.15-0.438-0.134-0.671v0c0.068-0.496 0.207-0.767 0.417-0.813 0.21-0.046 0.462-0.058 0.754-0.038v0c0.944 0.065 1.618-0.059 2.021-0.372 0.409-0.312 0.682-0.725 0.817-1.236 0.142-0.505 0.232-1.036 0.27-1.595v0l1.213-17.536-0.13-0.009-10.662 21.854c-0.07 0.142-0.194 0.244-0.372 0.305-0.185 0.061-0.363 0.085-0.536 0.073z" fill="#4169e1" data-fill-palette-color="accent"></path><path d="M155.555 34.334v0c-1.673-0.663-2.821-1.674-3.444-3.033-0.617-1.356-0.659-2.706-0.126-4.051v0c0.555-1.4 1.353-2.353 2.392-2.859 1.042-0.512 2.237-0.723 3.586-0.633 1.348 0.09 2.756 0.347 4.223 0.771 1.467 0.424 2.889 0.862 4.265 1.315v0l1.29-3.253c0.511-1.289 0.589-2.427 0.235-3.414-0.357-0.981-1.304-1.775-2.841-2.385v0c-0.768-0.305-1.589-0.343-2.46-0.115-0.863 0.224-1.481 0.804-1.852 1.74v0c-0.174 0.44-0.213 0.855-0.117 1.244 0.099 0.383 0.227 0.703 0.383 0.959 0.153 0.247 0.218 0.399 0.197 0.454v0c-0.044 0.112-0.282 0.25-0.714 0.416-0.429 0.16-0.916 0.131-1.461-0.084v0c-0.849-0.337-1.384-0.914-1.604-1.733-0.214-0.816-0.169-1.609 0.136-2.377v0c0.413-1.041 1.061-1.734 1.943-2.08 0.885-0.352 1.89-0.462 3.014-0.332 1.124 0.13 2.207 0.402 3.248 0.814v0c1.239 0.491 2.382 1.117 3.43 1.877 1.045 0.766 1.776 1.723 2.196 2.871 0.417 1.155 0.289 2.581-0.385 4.279v0l-3.803 9.592c-0.083 0.282-0.145 0.638-0.187 1.067-0.047 0.426 0.03 0.847 0.231 1.263 0.203 0.41 0.58 0.725 1.131 0.944v0c0.192 0.076 0.33 0.17 0.415 0.283 0.076 0.116 0.055 0.323-0.063 0.62v0c-0.098 0.248-0.311 0.386-0.637 0.414-0.327 0.028-0.681-0.001-1.063-0.088-0.375-0.084-0.687-0.176-0.934-0.274v0c-1.016-0.403-1.807-1.057-2.374-1.962-0.56-0.903-0.7-1.905-0.421-3.007v0c-1.045 0.862-2.272 1.336-3.683 1.422-1.42 0.09-2.802-0.132-4.146-0.665zM157.755 32.636v0c0.929 0.369 1.88 0.477 2.851 0.323 0.968-0.161 1.85-0.55 2.647-1.166 0.805-0.62 1.403-1.423 1.793-2.408v0l0.933-2.352c-2.902-0.928-5.098-1.276-6.589-1.042-1.493 0.24-2.561 1.168-3.202 2.785v0c-0.74 1.865-0.217 3.152 1.567 3.86z" fill="#4169e1" data-fill-palette-color="accent"></path><path d="M179.456 47.367l-1.508-1.088c0.348-1.747 0.783-3.615 1.307-5.604 0.523-1.99 1.035-3.935 1.534-5.835 0.496-1.895 0.877-3.584 1.143-5.069v0c0.261-1.16 0.345-2.056 0.252-2.691-0.092-0.625-0.462-1.246-1.11-1.862v0c-0.278-0.275-0.454-0.476-0.528-0.602-0.077-0.121-0.013-0.346 0.192-0.675v0c0.271-0.421 0.544-0.561 0.82-0.42 0.281 0.145 0.608 0.336 0.981 0.572v0c1.537 1.002 2.543 2.057 3.019 3.165 0.475 1.107 0.544 2.447 0.206 4.02v0c-0.199 0.982-0.486 2.177-0.86 3.584-0.379 1.403-0.748 2.831-1.105 4.283-0.357 1.452-0.649 2.791-0.876 4.016v0l0.105 0.076 10.353-6.845c0.737-0.52 1.058-0.942 0.962-1.266-0.095-0.324-0.5-0.743-1.213-1.258v0c-0.216-0.156-0.384-0.306-0.502-0.448-0.113-0.139-0.055-0.397 0.175-0.774v0c0.105-0.146 0.262-0.272 0.469-0.376 0.202-0.109 0.387-0.103 0.555 0.017v0c0.678 0.53 1.26 0.987 1.747 1.372 0.483 0.39 1.036 0.809 1.658 1.258v0c0.427 0.308 0.779 0.55 1.055 0.724 0.273 0.18 0.556 0.368 0.85 0.565 0.294 0.196 0.678 0.444 1.152 0.744v0c0.195 0.14 0.272 0.324 0.232 0.55-0.034 0.23-0.104 0.418-0.209 0.564v0c-0.284 0.337-0.516 0.47-0.695 0.399-0.184-0.075-0.373-0.183-0.568-0.324v0c-0.789-0.569-1.52-0.879-2.191-0.927-0.677-0.053-1.485 0.219-2.425 0.815v0c0 0-0.353 0.227-1.058 0.679-0.714 0.455-1.637 1.038-2.768 1.751-1.131 0.713-2.329 1.468-3.594 2.265-1.265 0.797-2.472 1.546-3.619 2.247-1.142 0.705-2.079 1.286-2.812 1.744-0.729 0.452-1.104 0.67-1.126 0.655z" fill="#4169e1" data-fill-palette-color="accent"></path><path d="M196.307 62.891v0c-1.511-1.698-2.42-3.45-2.726-5.258-0.301-1.802-0.1-3.53 0.606-5.184 0.7-1.65 1.767-3.113 3.201-4.389v0c0.971-0.864 2.065-1.535 3.283-2.012 1.222-0.472 2.497-0.728 3.826-0.769 1.329-0.031 2.616 0.206 3.861 0.713 1.245 0.516 2.377 1.347 3.396 2.491v0c1.808 2.031 2.646 4.025 2.514 5.982-0.132 1.956-0.937 3.73-2.412 5.32v0c-0.772 0.687-1.47 0.92-2.095 0.7-0.625-0.211-1.241-0.658-1.848-1.339v0l-7.161-8.044c-1.28 1.139-2.262 2.331-2.948 3.576-0.691 1.249-0.989 2.513-0.893 3.793 0.091 1.285 0.694 2.554 1.811 3.809v0c0.824 0.926 1.731 1.543 2.719 1.851 0.988 0.308 2.252 0.329 3.792 0.064v0c0.374-0.021 0.599 0.212 0.675 0.698v0c0.075 0.255 0.038 0.488-0.112 0.702-0.154 0.208-0.333 0.328-0.538 0.358v0c-1.692 0.275-3.308 0.169-4.847-0.317-1.539-0.486-2.907-1.401-4.104-2.745zM202.007 49.985v0l4.8 5.392c0.474 0.533 0.958 0.865 1.451 0.998 0.493 0.132 1.002-0.017 1.527-0.449v0c0.951-0.847 1.564-1.857 1.841-3.031 0.276-1.174-0.067-2.301-1.029-3.381v0c-0.98-1.1-2.24-1.629-3.782-1.587-1.537 0.048-3.14 0.734-4.808 2.058z" fill="#4169e1" data-fill-palette-color="accent"></path><path d="M204.215 72.665v0c-0.093-0.185-0.083-0.38 0.03-0.585 0.107-0.203 0.253-0.351 0.438-0.444v0c0.426-0.147 0.697-0.149 0.814-0.006 0.119 0.134 0.245 0.332 0.376 0.594v0c0.371 0.739 0.749 1.179 1.134 1.322 0.382 0.136 0.795 0.119 1.239-0.052 0.441-0.177 0.885-0.377 1.331-0.602v0l9.06-4.551c0.477-0.239 0.911-0.48 1.304-0.723 0.384-0.245 0.638-0.563 0.763-0.953 0.116-0.394-0.012-0.96-0.383-1.699v0c-0.117-0.232-0.193-0.466-0.229-0.702-0.033-0.229 0.147-0.443 0.539-0.64v0c0.399-0.2 0.744-0.109 1.034 0.275v0c0.795 1.122 1.447 1.959 1.954 2.51 0.511 0.556 0.914 0.966 1.21 1.227 0.296 0.262 0.526 0.519 0.69 0.772v0c0.129 0.197 0.177 0.396 0.144 0.599-0.029 0.194-0.205 0.372-0.526 0.533v0l-2.493 1.253 0.058 0.116c0.773 0.276 1.527 0.575 2.264 0.899 0.743 0.321 1.455 0.78 2.136 1.377 0.675 0.601 1.291 1.455 1.847 2.564v0c0.901 1.793 1.078 3.49 0.533 5.092-0.554 1.599-1.713 2.841-3.476 3.727v0l-8.435 4.237c-0.447 0.224-0.873 0.461-1.277 0.709-0.402 0.254-0.658 0.584-0.767 0.99-0.113 0.4 0.017 0.969 0.387 1.707v0c0.12 0.238 0.202 0.454 0.247 0.648 0.051 0.191-0.117 0.398-0.504 0.623v0c-0.185 0.093-0.387 0.127-0.608 0.104-0.227-0.02-0.392-0.135-0.497-0.344v0c-0.329-0.789-0.651-1.512-0.965-2.167-0.311-0.649-0.646-1.331-1.006-2.046v0c-0.359-0.715-0.703-1.385-1.032-2.01-0.329-0.625-0.713-1.309-1.153-2.05v0c-0.093-0.185-0.083-0.38 0.03-0.586 0.11-0.197 0.257-0.342 0.442-0.435v0c0.411-0.177 0.678-0.188 0.8-0.033 0.128 0.152 0.251 0.344 0.368 0.576v0c0.371 0.739 0.752 1.185 1.143 1.34 0.388 0.148 0.804 0.137 1.248-0.034 0.444-0.171 0.889-0.368 1.335-0.593v0l8.39-4.214c0.87-0.437 1.486-0.985 1.848-1.645 0.359-0.665 0.528-1.354 0.506-2.067-0.031-0.715-0.198-1.374-0.5-1.975v0c-0.452-0.899-1.014-1.609-1.685-2.13-0.678-0.517-1.334-0.881-1.97-1.092-0.635-0.21-1.151-0.317-1.548-0.319v0l-9.417 4.731c-0.447 0.224-0.871 0.464-1.273 0.718-0.402 0.254-0.659 0.581-0.772 0.981-0.11 0.406 0.021 0.978 0.393 1.716v0c0.12 0.238 0.201 0.451 0.242 0.639 0.051 0.191-0.116 0.401-0.499 0.631v0c-0.185 0.093-0.387 0.127-0.608 0.104-0.227-0.02-0.392-0.135-0.497-0.343v0c-0.332-0.795-0.654-1.518-0.966-2.167-0.314-0.655-0.649-1.337-1.005-2.046v0c-0.359-0.715-0.703-1.385-1.033-2.01-0.332-0.631-0.716-1.315-1.153-2.051z" fill="#4169e1" data-fill-palette-color="accent"></path><path d="M11.072 165.236v0c-0.108-0.28-0.085-0.51 0.066-0.69 0.15-0.186 0.334-0.321 0.551-0.405v0c0.476-0.155 0.779-0.146 0.91 0.025 0.13 0.171 0.249 0.397 0.357 0.677v0c0.34 0.883 0.737 1.441 1.19 1.674 0.456 0.239 0.945 0.311 1.466 0.218 0.517-0.085 1.037-0.228 1.56-0.428v0l19.719-7.587-1.099-2.855c-0.393-0.927-0.873-1.582-1.441-1.964-0.574-0.379-1.301-0.542-2.181-0.489-0.886 0.055-1.985 0.224-3.297 0.508v0c-0.258 0.071-0.511-0.028-0.757-0.298-0.246-0.269-0.428-0.557-0.546-0.861v0c-0.074-0.193-0.087-0.431-0.039-0.714 0.052-0.291 0.215-0.49 0.489-0.595v0l5.87-2.119c0.386-0.148 0.693-0.138 0.922 0.031 0.221 0.165 0.39 0.4 0.507 0.705v0l7.777 20.213c0.115 0.299 0.145 0.58 0.089 0.844-0.064 0.26-0.289 0.465-0.675 0.613v0l-5.759 2.408c-0.274 0.105-0.528 0.067-0.761-0.114-0.228-0.184-0.384-0.385-0.468-0.602v0c-0.105-0.274-0.154-0.587-0.147-0.94 0.007-0.353 0.124-0.605 0.352-0.756v0c1.164-0.669 2.091-1.286 2.78-1.852 0.683-0.563 1.114-1.171 1.291-1.825 0.171-0.651 0.086-1.465-0.254-2.441v0l-1.081-2.809-19.718 7.586c-0.511 0.232-0.99 0.481-1.438 0.746-0.454 0.268-0.768 0.649-0.942 1.144-0.174 0.495-0.097 1.169 0.231 2.022v0c0.105 0.274 0.167 0.518 0.186 0.732 0.018 0.214-0.2 0.427-0.655 0.638v0c-0.218 0.084-0.445 0.107-0.68 0.069-0.236-0.038-0.407-0.194-0.512-0.468v0c-0.284-0.905-0.57-1.752-0.86-2.54-0.289-0.789-0.588-1.584-0.897-2.387v0c-0.634-1.649-1.337-3.353-2.107-5.114z" fill="#4169e1" data-fill-palette-color="accent"></path><path d="M23.056 191.177v0c-1.009-1.49-1.388-2.972-1.138-4.445 0.254-1.468 0.98-2.607 2.178-3.418v0c1.248-0.844 2.443-1.183 3.587-1.016 1.149 0.164 2.256 0.663 3.319 1.497 1.063 0.834 2.082 1.839 3.055 3.015 0.973 1.176 1.901 2.339 2.784 3.488v0l2.898-1.961c1.148-0.777 1.854-1.673 2.116-2.689 0.257-1.011-0.077-2.201-1.004-3.57v0c-0.463-0.684-1.119-1.178-1.968-1.481-0.84-0.301-1.676-0.169-2.51 0.395v0c-0.392 0.265-0.658 0.586-0.797 0.962-0.134 0.373-0.209 0.709-0.223 1.008-0.013 0.29-0.044 0.452-0.094 0.486v0c-0.099 0.067-0.374 0.048-0.824-0.058-0.444-0.11-0.831-0.407-1.16-0.893v0c-0.512-0.756-0.628-1.535-0.349-2.335 0.283-0.795 0.766-1.424 1.451-1.888v0c0.927-0.628 1.853-0.836 2.777-0.624 0.93 0.208 1.822 0.682 2.678 1.423 0.856 0.741 1.597 1.575 2.225 2.503v0c0.747 1.104 1.34 2.265 1.777 3.481 0.432 1.221 0.498 2.424 0.197 3.61-0.306 1.189-1.215 2.296-2.727 3.319v0l-8.546 5.784c-0.228 0.186-0.479 0.445-0.754 0.777-0.279 0.326-0.453 0.717-0.521 1.174-0.063 0.453 0.071 0.926 0.403 1.417v0c0.116 0.171 0.177 0.327 0.184 0.467-0.003 0.139-0.137 0.298-0.402 0.477v0c-0.221 0.149-0.474 0.144-0.76-0.017-0.286-0.161-0.562-0.384-0.828-0.67-0.263-0.281-0.469-0.532-0.618-0.753v0c-0.613-0.905-0.898-1.891-0.856-2.959 0.046-1.062 0.495-1.969 1.346-2.721v0c-1.349 0.124-2.63-0.176-3.845-0.9-1.223-0.725-2.241-1.687-3.051-2.885zM25.83 191.014v0c0.56 0.828 1.285 1.452 2.174 1.873 0.89 0.412 1.838 0.587 2.844 0.526 1.015-0.059 1.961-0.385 2.838-0.979v0l2.095-1.418c-1.875-2.401-3.494-3.925-4.858-4.572-1.369-0.643-2.774-0.477-4.214 0.498v0c-1.662 1.125-1.954 2.482-0.879 4.072z" fill="#4169e1" data-fill-palette-color="accent"></path><path d="M36.729 208.419v0c-0.146-0.146-0.199-0.334-0.157-0.565 0.037-0.226 0.129-0.413 0.274-0.559v0c0.358-0.274 0.614-0.362 0.77-0.264 0.156 0.089 0.338 0.237 0.546 0.444v0c0.586 0.583 1.084 0.881 1.494 0.895 0.405 0.008 0.792-0.139 1.158-0.442 0.362-0.307 0.72-0.638 1.072-0.992v0l7.152-7.187c0.376-0.378 0.712-0.744 1.008-1.098 0.287-0.354 0.427-0.736 0.421-1.147-0.015-0.41-0.316-0.907-0.901-1.489v0c-0.184-0.183-0.331-0.381-0.44-0.593-0.104-0.207-0.001-0.467 0.309-0.779v0c0.315-0.317 0.671-0.339 1.068-0.066v0c1.11 0.813 1.993 1.4 2.648 1.761 0.661 0.366 1.178 0.631 1.551 0.795 0.378 0.169 0.682 0.345 0.913 0.528v0c0.189 0.15 0.298 0.324 0.326 0.522 0.033 0.193-0.077 0.417-0.33 0.673v0l-10.868 10.922c-0.353 0.354-0.679 0.716-0.981 1.084-0.301 0.368-0.441 0.76-0.421 1.175 0.025 0.419 0.33 0.921 0.916 1.504v0c0.189 0.188 0.333 0.364 0.433 0.529 0.109 0.165 0.018 0.417-0.274 0.757v0c-0.146 0.146-0.327 0.244-0.544 0.291-0.221 0.052-0.415-0.004-0.58-0.168v0c-0.567-0.649-1.101-1.232-1.602-1.749-0.506-0.522-1.04-1.063-1.602-1.623v0c-0.567-0.564-1.106-1.091-1.616-1.579-0.515-0.494-1.096-1.02-1.743-1.58zM58.071 193.18v0c-0.586-0.583-0.894-1.256-0.924-2.02-0.035-0.759 0.218-1.41 0.759-1.954v0c0.48-0.482 1.148-0.672 2.007-0.57 0.858 0.102 1.59 0.453 2.194 1.055v0c0.524 0.522 0.771 1.134 0.74 1.836-0.027 0.698-0.322 1.33-0.886 1.897v0c-0.498 0.501-1.122 0.731-1.872 0.691-0.759-0.041-1.431-0.352-2.018-0.935z" fill="#4169e1" data-fill-palette-color="accent"></path><path d="M49.58 220.08v0c-0.167-0.122-0.247-0.3-0.24-0.535 0.003-0.229 0.065-0.427 0.187-0.594v0c0.285-0.345 0.518-0.476 0.697-0.394 0.184 0.077 0.383 0.194 0.598 0.351v0c0.667 0.488 1.207 0.71 1.62 0.665 0.418-0.041 0.783-0.24 1.095-0.599 0.317-0.354 0.623-0.733 0.919-1.136v0l12.769-17.443c0.311-0.425 0.584-0.837 0.818-1.236 0.239-0.395 0.321-0.794 0.244-1.196-0.071-0.399-0.44-0.843-1.107-1.332v0c-0.215-0.158-0.39-0.331-0.524-0.519-0.134-0.189-0.071-0.461 0.188-0.817v0c0.264-0.36 0.612-0.436 1.046-0.226v0c1.214 0.633 2.175 1.08 2.883 1.343 0.703 0.259 1.254 0.443 1.652 0.553 0.399 0.11 0.726 0.238 0.983 0.384v0c0.204 0.116 0.338 0.272 0.401 0.468 0.062 0.186-0.011 0.421-0.22 0.706v0l-15.882 21.695c-0.295 0.403-0.564 0.81-0.806 1.219-0.247 0.406-0.327 0.814-0.24 1.225 0.082 0.407 0.457 0.855 1.124 1.343v0c0.215 0.158 0.387 0.312 0.515 0.464 0.132 0.146 0.077 0.408-0.165 0.784v0c-0.122 0.167-0.284 0.292-0.485 0.375-0.211 0.085-0.413 0.057-0.607-0.085v0c-0.653-0.552-1.269-1.049-1.847-1.488-0.573-0.436-1.182-0.89-1.828-1.363v0c-0.64-0.469-1.252-0.908-1.835-1.319-0.578-0.407-1.229-0.838-1.953-1.293z" fill="#4169e1" data-fill-palette-color="accent"></path><path d="M73.369 234.486v0c-1.868-0.884-3.295-2.099-4.282-3.643-0.987-1.544-1.531-3.207-1.632-4.988-0.101-1.781 0.227-3.47 0.983-5.066v0c0.747-1.578 1.691-2.847 2.83-3.804 1.142-0.964 2.367-1.641 3.674-2.033 1.315-0.395 2.623-0.547 3.921-0.456 1.29 0.095 2.471 0.396 3.544 0.904v0c1.868 0.884 3.292 2.097 4.273 3.639 0.987 1.544 1.531 3.207 1.632 4.988 0.104 1.775-0.224 3.464-0.983 5.066v0c-0.745 1.572-1.694 2.838-2.848 3.795-1.154 0.958-2.388 1.631-3.7 2.021-1.313 0.389-2.615 0.539-3.909 0.45-1.299-0.091-2.467-0.383-3.503-0.873zM74.071 233.004v0c1.307 0.619 2.523 0.723 3.648 0.311 1.127-0.418 2.156-1.181 3.086-2.289 0.936-1.105 1.753-2.393 2.449-3.863v0c0.67-1.416 1.109-2.794 1.316-4.134 0.21-1.331 0.098-2.543-0.338-3.634-0.429-1.088-1.27-1.929-2.522-2.522v0c-1.307-0.619-2.531-0.73-3.671-0.333-1.131 0.394-2.152 1.134-3.065 2.222-0.907 1.09-1.714 2.382-2.422 3.876v0c-0.656 1.386-1.099 2.758-1.329 4.116-0.239 1.362-0.143 2.591 0.289 3.688 0.423 1.1 1.276 1.954 2.559 2.562z" fill="#4169e1" data-fill-palette-color="accent"></path><path d="M91.793 240.991v0c-0.202-0.043-0.348-0.173-0.439-0.389-0.092-0.21-0.116-0.416-0.074-0.618v0c0.151-0.425 0.319-0.638 0.503-0.64 0.179-0.01 0.412 0.016 0.7 0.076v0c0.809 0.171 1.389 0.151 1.74-0.061 0.345-0.213 0.589-0.546 0.733-0.999 0.137-0.455 0.257-0.927 0.361-1.416v0l2.099-9.919c0.11-0.522 0.194-1.012 0.25-1.47 0.048-0.453-0.042-0.85-0.27-1.192-0.235-0.336-0.758-0.59-1.566-0.76v0c-0.254-0.054-0.485-0.14-0.691-0.259-0.2-0.117-0.255-0.391-0.164-0.822v0c0.092-0.437 0.379-0.649 0.861-0.635v0c1.373 0.079 2.433 0.093 3.18 0.039 0.754-0.052 1.325-0.111 1.714-0.179 0.389-0.068 0.734-0.087 1.034-0.057v0c0.234 0.022 0.42 0.109 0.558 0.261 0.133 0.144 0.162 0.392 0.088 0.744v0l-0.567 2.681 0.127 0.027c1.186-0.744 2.363-1.316 3.531-1.716 1.175-0.399 2.196-0.506 3.063-0.323v0c1.011 0.214 1.704 0.752 2.08 1.616 0.37 0.862 0.466 1.71 0.29 2.545v0c-0.153 0.724-0.53 1.377-1.13 1.958-0.607 0.58-1.373 0.772-2.299 0.576v0c-0.463-0.098-0.811-0.271-1.045-0.517-0.235-0.241-0.356-0.409-0.363-0.506v0c0.012-0.059 0.186-0.203 0.52-0.432 0.335-0.229 0.548-0.562 0.641-0.999v0c0.109-0.515 0.06-0.962-0.146-1.339-0.206-0.378-0.541-0.615-1.004-0.713v0c-0.496-0.105-1.177 0.01-2.045 0.344-0.867 0.328-1.722 0.763-2.566 1.307v0l-2.238 10.574c-0.104 0.489-0.181 0.97-0.234 1.443-0.052 0.473 0.043 0.878 0.285 1.215 0.249 0.339 0.777 0.594 1.585 0.765v0c0.261 0.055 0.478 0.125 0.651 0.209 0.181 0.079 0.241 0.341 0.182 0.785v0c-0.043 0.202-0.142 0.382-0.299 0.539-0.157 0.164-0.35 0.222-0.578 0.174v0c-0.829-0.237-1.594-0.436-2.296-0.598-0.708-0.163-1.45-0.327-2.226-0.491v0c-0.783-0.166-1.521-0.315-2.215-0.449-0.701-0.135-1.474-0.261-2.321-0.379z" fill="#4169e1" data-fill-palette-color="accent"></path><path d="M131.506 243.4v0c-0.18 0.012-0.362-0.012-0.547-0.072-0.178-0.061-0.315-0.162-0.411-0.302v0l-11.5-21.797-0.13 0.009 1.302 17.53c0.065 0.557 0.152 1.089 0.261 1.596 0.109 0.514 0.368 0.927 0.777 1.239 0.402 0.313 1.063 0.438 1.981 0.374v0c0.319-0.022 0.584-0.01 0.794 0.036 0.21 0.046 0.349 0.317 0.417 0.813v0c0.016 0.233-0.035 0.457-0.154 0.672-0.119 0.215-0.311 0.332-0.577 0.351v0c-0.62 0.016-1.12 0.031-1.501 0.043-0.387 0.007-0.757 0.016-1.11 0.027-0.353 0.011-0.826 0.037-1.418 0.078v0c-0.884 0.061-1.599 0.117-2.143 0.168-0.544 0.051-1.283 0.139-2.217 0.263v0c-0.299 0.021-0.513-0.068-0.64-0.266-0.134-0.198-0.209-0.413-0.225-0.646v0c-0.008-0.501 0.089-0.788 0.291-0.862 0.202-0.074 0.453-0.121 0.752-0.142v0c0.938-0.065 1.581-0.28 1.93-0.645 0.342-0.364 0.539-0.809 0.589-1.333 0.058-0.518 0.067-1.057 0.029-1.616v0l-1.133-17.542c-0.065-0.944-0.217-1.639-0.454-2.083-0.237-0.438-0.582-0.738-1.035-0.901-0.452-0.163-1.022-0.28-1.708-0.353v0c-0.418-0.058-0.713-0.111-0.883-0.159-0.164-0.049-0.262-0.309-0.295-0.782v0c-0.034-0.499 0.123-0.784 0.473-0.854 0.35-0.064 0.761-0.113 1.232-0.146v0c1.443-0.1 2.725-0.071 3.845 0.085 1.12 0.163 2.116 0.545 2.986 1.147 0.871 0.608 1.618 1.555 2.241 2.842v0l8.78 16.532 0.13-0.009 7.223-22.078 2.514-0.174c0.884-0.061 1.745-0.134 2.581-0.219 0.836-0.091 1.725-0.183 2.667-0.274v0c0.293-0.02 0.506 0.069 0.64 0.266 0.134 0.198 0.209 0.413 0.225 0.646v0c0.002 0.508-0.098 0.799-0.301 0.873-0.202 0.067-0.45 0.111-0.742 0.131v0c-0.911 0.063-1.554 0.278-1.93 0.645-0.376 0.367-0.589 0.812-0.64 1.337-0.051 0.518-0.074 1.061-0.067 1.628v0l1.212 17.537c0.072 0.556 0.169 1.087 0.291 1.593 0.122 0.513 0.395 0.925 0.817 1.237 0.422 0.312 1.089 0.436 2 0.372v0c0.293-0.02 0.544-0.008 0.754 0.039 0.21 0.046 0.349 0.317 0.417 0.813v0c0.016 0.233-0.029 0.456-0.134 0.67-0.105 0.214-0.304 0.332-0.597 0.352v0c-0.948 0.005-1.849 0.031-2.701 0.077-0.852 0.046-1.72 0.099-2.605 0.16v0c-1.709 0.118-3.518 0.287-5.427 0.505v0c-0.293 0.02-0.506-0.069-0.64-0.266-0.134-0.198-0.209-0.413-0.225-0.646v0c-0.001-0.501 0.099-0.789 0.301-0.863 0.202-0.074 0.449-0.121 0.742-0.141v0c0.944-0.065 1.594-0.281 1.95-0.646 0.362-0.366 0.575-0.812 0.639-1.337 0.071-0.519 0.087-1.058 0.049-1.617v0l-1.212-17.537-0.13 0.009-7.553 23.114c-0.05 0.15-0.159 0.268-0.326 0.353-0.174 0.086-0.348 0.134-0.521 0.146z" fill="#4169e1" data-fill-palette-color="accent"></path><path d="M163.46 237.675v0c-1.673 0.663-3.202 0.714-4.586 0.152-1.378-0.565-2.334-1.52-2.868-2.864v0c-0.555-1.4-0.628-2.641-0.217-3.722 0.408-1.087 1.134-2.059 2.177-2.918 1.044-0.858 2.245-1.636 3.604-2.332 1.359-0.697 2.694-1.352 4.007-1.966v0l-1.29-3.253c-0.511-1.289-1.234-2.171-2.168-2.647-0.932-0.469-2.166-0.399-3.703 0.21v0c-0.768 0.305-1.392 0.839-1.871 1.603-0.475 0.755-0.527 1.6-0.156 2.535v0c0.174 0.44 0.43 0.769 0.767 0.987 0.335 0.211 0.647 0.357 0.937 0.435 0.281 0.075 0.432 0.141 0.454 0.197v0c0.044 0.112-0.034 0.376-0.234 0.792-0.203 0.41-0.577 0.724-1.123 0.94v0c-0.849 0.337-1.634 0.282-2.355-0.163-0.715-0.448-1.225-1.056-1.531-1.825v0c-0.413-1.041-0.416-1.99-0.01-2.846 0.404-0.863 1.06-1.632 1.968-2.308 0.908-0.676 1.883-1.22 2.924-1.632v0c1.239-0.491 2.5-0.819 3.783-0.984 1.285-0.158 2.474 0.037 3.567 0.586 1.095 0.555 1.979 1.682 2.652 3.38v0l3.804 9.592c0.133 0.263 0.331 0.564 0.595 0.904 0.258 0.342 0.602 0.597 1.034 0.763 0.429 0.16 0.919 0.13 1.471-0.089v0c0.192-0.076 0.357-0.102 0.496-0.078 0.135 0.033 0.261 0.198 0.379 0.495v0c0.098 0.248 0.038 0.494-0.181 0.738-0.219 0.244-0.497 0.466-0.833 0.664-0.331 0.196-0.621 0.343-0.869 0.442v0c-1.016 0.403-2.041 0.469-3.073 0.196-1.027-0.274-1.816-0.908-2.368-1.901v0c-0.17 1.344-0.739 2.53-1.707 3.56-0.972 1.038-2.131 1.824-3.476 2.357zM163.899 234.93v0c0.929-0.369 1.696-0.941 2.299-1.718 0.594-0.781 0.97-1.668 1.127-2.662 0.161-1.003 0.047-1.998-0.344-2.983v0l-0.932-2.352c-2.749 1.313-4.587 2.565-5.513 3.756-0.923 1.198-1.064 2.606-0.423 4.223v0c0.74 1.865 2.002 2.444 3.786 1.736z" fill="#4169e1" data-fill-palette-color="accent"></path><path d="M191.9 221.951l-1.508 1.088c-1.548-0.881-3.183-1.883-4.907-3.006-1.723-1.124-3.408-2.222-5.053-3.296-1.642-1.068-3.125-1.962-4.451-2.682v0c-1.018-0.613-1.843-0.976-2.474-1.088-0.622-0.11-1.328 0.045-2.117 0.467v0c-0.349 0.178-0.595 0.281-0.737 0.31-0.139 0.035-0.333-0.097-0.581-0.394v0c-0.314-0.39-0.361-0.693-0.139-0.911 0.227-0.221 0.511-0.471 0.852-0.75v0c1.436-1.143 2.754-1.765 3.954-1.867 1.201-0.102 2.494 0.255 3.881 1.071v0c0.87 0.499 1.913 1.147 3.13 1.946 1.212 0.802 2.451 1.602 3.716 2.399 1.265 0.797 2.444 1.496 3.535 2.097v0l0.106-0.076-3.233-11.982c-0.261-0.864-0.561-1.301-0.898-1.313-0.337-0.012-0.862 0.24-1.576 0.755v0c-0.216 0.156-0.411 0.268-0.584 0.335-0.168 0.064-0.394-0.073-0.679-0.41v0c-0.105-0.146-0.175-0.334-0.209-0.564-0.04-0.226 0.024-0.4 0.191-0.52v0c0.717-0.476 1.334-0.885 1.853-1.226 0.522-0.336 1.094-0.728 1.716-1.177v0c0.427-0.308 0.767-0.566 1.02-0.773 0.257-0.202 0.525-0.412 0.804-0.629 0.279-0.218 0.635-0.504 1.07-0.858v0c0.195-0.14 0.393-0.156 0.595-0.048 0.207 0.105 0.364 0.231 0.469 0.377v0c0.23 0.376 0.284 0.638 0.159 0.785-0.129 0.151-0.291 0.297-0.486 0.437v0c-0.789 0.569-1.313 1.165-1.571 1.787-0.264 0.626-0.261 1.479 0.009 2.559v0c0 0 0.104 0.406 0.311 1.217 0.206 0.821 0.469 1.881 0.79 3.179 0.32 1.298 0.659 2.673 1.016 4.125 0.357 1.452 0.688 2.833 0.991 4.143 0.309 1.306 0.565 2.379 0.769 3.218 0.199 0.834 0.288 1.259 0.266 1.275z" fill="#4169e1" data-fill-palette-color="accent"></path><path d="M212.326 203.442v0c-1.511 1.698-3.147 2.803-4.906 3.316-1.755 0.508-3.495 0.507-5.22-0.001-1.72-0.504-3.296-1.395-4.73-2.672v0c-0.971-0.864-1.764-1.874-2.379-3.027-0.61-1.159-1.013-2.396-1.207-3.712-0.185-1.316-0.098-2.622 0.262-3.918 0.369-1.296 1.063-2.517 2.082-3.662v0c1.808-2.031 3.692-3.094 5.65-3.189 1.959-0.095 3.813 0.499 5.564 1.78v0c0.772 0.687 1.084 1.353 0.937 2-0.137 0.645-0.509 1.309-1.116 1.991v0l-7.161 8.043c1.28 1.139 2.577 1.977 3.893 2.515 1.32 0.542 2.611 0.691 3.871 0.448 1.266-0.239 2.457-0.985 3.574-2.24v0c0.824-0.926 1.332-1.897 1.524-2.914 0.191-1.017 0.066-2.275-0.375-3.775v0c-0.064-0.369 0.141-0.62 0.615-0.751v0c0.244-0.104 0.481-0.094 0.71 0.03 0.225 0.129 0.364 0.293 0.418 0.493v0c0.469 1.649 0.551 3.266 0.246 4.851-0.305 1.585-1.055 3.05-2.252 4.394zM198.848 199.274v0l4.8-5.392c0.474-0.533 0.749-1.052 0.823-1.556 0.075-0.505-0.133-0.993-0.623-1.465v0c-0.951-0.847-2.025-1.339-3.223-1.477-1.198-0.138-2.278 0.333-3.24 1.413v0c-0.98 1.1-1.359 2.414-1.138 3.94 0.225 1.521 1.092 3.034 2.601 4.537z" fill="#4169e1" data-fill-palette-color="accent"></path><path d="M222.665 188.676v0c-0.093 0.185-0.255 0.293-0.488 0.325-0.227 0.035-0.432 0.007-0.617-0.086v0c-0.372-0.254-0.536-0.471-0.491-0.649 0.036-0.176 0.12-0.395 0.252-0.657v0c0.371-0.739 0.499-1.305 0.383-1.699-0.119-0.388-0.379-0.709-0.78-0.963-0.405-0.248-0.831-0.485-1.278-0.709v0l-9.06-4.551c-0.477-0.239-0.929-0.444-1.358-0.615-0.426-0.162-0.833-0.176-1.221-0.043-0.385 0.142-0.763 0.583-1.133 1.322v0c-0.117 0.232-0.259 0.433-0.426 0.603-0.164 0.164-0.443 0.147-0.836-0.051v0c-0.399-0.2-0.531-0.532-0.397-0.994v0c0.426-1.308 0.708-2.33 0.847-3.066 0.142-0.742 0.229-1.31 0.262-1.703 0.034-0.393 0.103-0.732 0.208-1.014v0c0.081-0.22 0.212-0.378 0.394-0.474 0.173-0.092 0.42-0.057 0.743 0.105v0l2.492 1.252 0.059-0.116c-0.24-0.784-0.45-1.569-0.631-2.354-0.186-0.787-0.243-1.633-0.169-2.535 0.079-0.9 0.397-1.904 0.953-3.012v0c0.901-1.793 2.156-2.949 3.768-3.468 1.614-0.51 3.302-0.322 5.065 0.564v0l8.434 4.238c0.447 0.224 0.891 0.425 1.332 0.601 0.444 0.171 0.861 0.179 1.252 0.025 0.388-0.148 0.767-0.592 1.138-1.33v0c0.12-0.238 0.244-0.433 0.372-0.585 0.123-0.155 0.389-0.144 0.801 0.032v0c0.185 0.093 0.333 0.235 0.446 0.426 0.119 0.194 0.126 0.395 0.021 0.604v0c-0.437 0.736-0.824 1.425-1.162 2.068-0.335 0.637-0.682 1.313-1.041 2.028v0c-0.359 0.715-0.691 1.391-0.997 2.028-0.305 0.637-0.624 1.354-0.956 2.149v0c-0.093 0.185-0.255 0.293-0.488 0.326-0.224 0.029-0.428-0.002-0.613-0.095v0c-0.387-0.224-0.555-0.432-0.504-0.623 0.045-0.194 0.126-0.407 0.243-0.639v0c0.371-0.739 0.502-1.311 0.392-1.716-0.113-0.4-0.37-0.727-0.772-0.981-0.402-0.254-0.826-0.493-1.273-0.718v0l-8.389-4.214c-0.87-0.437-1.677-0.604-2.423-0.501-0.748 0.109-1.402 0.385-1.96 0.828-0.555 0.452-0.984 0.979-1.287 1.58v0c-0.452 0.899-0.686 1.774-0.702 2.624-0.011 0.853 0.089 1.597 0.3 2.232 0.21 0.635 0.433 1.113 0.668 1.432v0l9.417 4.731c0.447 0.224 0.892 0.422 1.336 0.592 0.444 0.171 0.86 0.182 1.247 0.034 0.391-0.154 0.772-0.601 1.143-1.339v0c0.12-0.238 0.242-0.43 0.368-0.576 0.123-0.155 0.391-0.147 0.805 0.024v0c0.185 0.093 0.333 0.235 0.446 0.425 0.119 0.194 0.126 0.395 0.021 0.604v0c-0.44 0.741-0.827 1.431-1.162 2.068-0.338 0.643-0.685 1.319-1.041 2.028v0c-0.359 0.715-0.691 1.391-0.996 2.028-0.308 0.643-0.627 1.36-0.957 2.149z" fill="#4169e1" data-fill-palette-color="accent"></path><path d="M2.059 126.036c0-6.814 5.524-12.337 12.337-12.337 6.814 0 12.337 5.524 12.338 12.337 0 6.814-5.524 12.337-12.338 12.338-6.814 0-12.337-5.524-12.337-12.338z" fill="#4169e1" data-fill-palette-color="accent"></path><path d="M217.698 126.036c0-6.814 5.524-12.337 12.337-12.337 6.814 0 12.337 5.524 12.337 12.337 0 6.814-5.524 12.337-12.337 12.338-6.814 0-12.337-5.524-12.337-12.338z" fill="#4169e1" data-fill-palette-color="accent"></path></g><g id="text-1"></g></svg></g></svg></g></svg></g><defs></defs></svg><rect width="395.52" height="143.95113137642667" fill="none" stroke="none" visibility="hidden"></rect></g></svg></g></svg>