<svg xmlns="http://www.w3.org/2000/svg" xmlns:xlink="http://www.w3.org/1999/xlink" version="1.1" width="256" height="256" viewBox="0 0 256 256" xml:space="preserve">

<defs>
</defs>
<g style="stroke: none; stroke-width: 0; stroke-dasharray: none; stroke-linecap: butt; stroke-linejoin: miter; stroke-miterlimit: 10; fill: none; fill-rule: nonzero; opacity: 1;" transform="translate(1.4065934065934016 1.4065934065934016) scale(2.81 2.81)" >
	<path d="M 72.975 58.994 H 31.855 c -1.539 0 -2.897 -1.005 -3.347 -2.477 L 15.199 13.006 H 3.5 c -1.933 0 -3.5 -1.567 -3.5 -3.5 s 1.567 -3.5 3.5 -3.5 h 14.289 c 1.539 0 2.897 1.005 3.347 2.476 l 13.309 43.512 h 36.204 l 10.585 -25.191 h -6.021 c -1.933 0 -3.5 -1.567 -3.5 -3.5 s 1.567 -3.5 3.5 -3.5 H 86.5 c 1.172 0 2.267 0.587 2.915 1.563 s 0.766 2.212 0.312 3.293 L 76.201 56.85 C 75.655 58.149 74.384 58.994 72.975 58.994 z" style="stroke: none; stroke-width: 1; stroke-dasharray: none; stroke-linecap: butt; stroke-linejoin: miter; stroke-miterlimit: 10; fill: rgb(0,0,0); fill-rule: nonzero; opacity: 1;" transform=" matrix(1 0 0 1 0 0) " stroke-linecap="round" />
	<circle cx="28.88" cy="74.33" r="6.16" style="stroke: none; stroke-width: 1; stroke-dasharray: none; stroke-linecap: butt; stroke-linejoin: miter; stroke-miterlimit: 10; fill: rgb(0,0,0); fill-rule: nonzero; opacity: 1;" transform="  matrix(1 0 0 1 0 0) "/>
	<circle cx="74.59" cy="74.33" r="6.16" style="stroke: none; stroke-width: 1; stroke-dasharray: none; stroke-linecap: butt; stroke-linejoin: miter; stroke-miterlimit: 10; fill: rgb(0,0,0); fill-rule: nonzero; opacity: 1;" transform="  matrix(1 0 0 1 0 0) "/>
	<path d="M 48.188 40.595 l -1.705 -0.951 c -3.698 -2.063 -9.26 -6.75 -11.669 -9.834 c -5.495 -7.033 -6.395 -15.264 -2.188 -20.017 c 2.061 -2.328 4.943 -3.67 8.117 -3.78 c 2.582 -0.084 5.153 0.659 7.445 2.142 c 2.293 -1.482 4.864 -2.235 7.446 -2.141 c 3.174 0.11 6.056 1.452 8.116 3.779 l 0 0 c 4.207 4.752 3.307 12.983 -2.188 20.018 c -2.409 3.083 -7.971 7.771 -11.669 9.833 L 48.188 40.595 z M 41.155 13.006 c -0.057 0 -0.113 0.001 -0.169 0.003 c -1.235 0.042 -2.342 0.548 -3.117 1.423 c -1.811 2.046 -0.707 7.011 2.462 11.068 c 1.519 1.944 5.046 5.025 7.858 6.957 c 2.813 -1.932 6.34 -5.013 7.858 -6.957 c 3.169 -4.057 4.273 -9.021 2.462 -11.068 l 0 0 c -0.774 -0.875 -1.881 -1.381 -3.116 -1.423 c -1.621 -0.053 -3.308 0.694 -4.75 2.111 l -2.454 2.414 l -2.455 -2.414 C 44.344 13.752 42.724 13.006 41.155 13.006 z" style="stroke: none; stroke-width: 1; stroke-dasharray: none; stroke-linecap: butt; stroke-linejoin: miter; stroke-miterlimit: 10; fill: rgb(0,0,0); fill-rule: nonzero; opacity: 1;" transform=" matrix(1 0 0 1 0 0) " stroke-linecap="round" />
</g>
</svg>